<?xml version="1.0" encoding="UTF-8"?>
<svg xmlns="http://www.w3.org/2000/svg" width="8000" height="2583" viewBox="0 0 8000 2583" version="1.1">
<title>360ai clean vector reconstruction</title>
<desc>Pure vector file. No embedded raster image.</desc>
<defs>
  <linearGradient id="logoGrad" x1="0" y1="0" x2="8000" y2="0" gradientUnits="userSpaceOnUse">
    <stop offset="0" stop-color="#B7B8E0"/>
    <stop offset="0.16" stop-color="#AAA8DA"/>
    <stop offset="0.31" stop-color="#8CB7D9"/>
    <stop offset="0.50" stop-color="#9EC5D7"/>
    <stop offset="0.66" stop-color="#98D2CB"/>
    <stop offset="0.82" stop-color="#7CCBC8"/>
    <stop offset="1" stop-color="#A5D5CC"/>
  </linearGradient>
  <linearGradient id="softLight" x1="0" y1="0" x2="0" y2="2583" gradientUnits="userSpaceOnUse">
    <stop offset="0" stop-color="#FFFFFF" stop-opacity="0.18"/>
    <stop offset="1" stop-color="#FFFFFF" stop-opacity="0"/>
  </linearGradient>
  <clipPath id="logoClip" clipPathUnits="userSpaceOnUse"><path d="M 7502.00 710.00 L 7483.00 719.00 L 7473.00 728.00 L 7462.00 751.00 L 7462.00 771.00 L 7466.00 780.00 L 7466.00 2178.00 L 7462.00 2186.00 L 7462.00 2194.00 L 7466.00 2203.00 L 7466.00 2403.00 L 7462.00 2412.00 L 7462.00 2428.00 L 7466.00 2436.00 L 7466.00 2506.00 L 7470.00 2515.00 L 7483.00 2528.00 L 7501.00 2536.00 L 7574.00 2536.00 L 7580.00 2539.00 L 7585.00 2539.00 L 7590.00 2536.00 L 7791.00 2536.00 L 7800.00 2540.00 L 7815.00 2540.00 L 7824.00 2536.00 L 7902.00 2535.00 L 7915.00 2528.00 L 7924.00 2519.00 L 7932.00 2502.00 L 7932.00 743.00 L 7922.00 724.00 L 7913.00 716.00 L 7900.00 710.00 Z M 188.00 60.00 L 167.00 71.00 L 155.00 90.00 L 155.00 156.00 L 151.00 165.00 L 151.00 368.00 L 155.00 377.00 L 155.00 432.00 L 153.00 443.00 L 157.00 468.00 L 176.00 486.00 L 1024.00 487.00 L 1026.00 489.00 L 1026.00 501.00 L 822.00 705.00 L 815.00 715.00 L 800.00 728.00 L 797.00 734.00 L 781.00 746.00 L 675.00 852.00 L 669.00 861.00 L 634.00 893.00 L 623.00 909.00 L 559.00 973.00 L 556.00 978.00 L 556.00 990.00 L 588.00 1037.00 L 601.00 1051.00 L 612.00 1069.00 L 645.00 1111.00 L 658.00 1132.00 L 758.00 1265.00 L 763.00 1267.00 L 776.00 1267.00 L 813.00 1255.00 L 832.00 1254.00 L 842.00 1250.00 L 853.00 1250.00 L 861.00 1246.00 L 894.00 1246.00 L 902.00 1242.00 L 941.00 1242.00 L 950.00 1246.00 L 965.00 1246.00 L 974.00 1250.00 L 989.00 1250.00 L 1019.00 1259.00 L 1026.00 1259.00 L 1039.00 1266.00 L 1050.00 1267.00 L 1076.00 1276.00 L 1144.00 1314.00 L 1171.00 1337.00 L 1181.00 1343.00 L 1218.00 1380.00 L 1225.00 1391.00 L 1239.00 1405.00 L 1269.00 1452.00 L 1298.00 1514.00 L 1310.00 1550.00 L 1311.00 1561.00 L 1315.00 1569.00 L 1315.00 1581.00 L 1319.00 1590.00 L 1319.00 1605.00 L 1323.00 1614.00 L 1323.00 1731.00 L 1319.00 1740.00 L 1319.00 1752.00 L 1315.00 1760.00 L 1315.00 1772.00 L 1311.00 1780.00 L 1311.00 1788.00 L 1297.00 1830.00 L 1286.00 1850.00 L 1281.00 1865.00 L 1274.00 1874.00 L 1260.00 1903.00 L 1232.00 1940.00 L 1222.00 1950.00 L 1217.00 1959.00 L 1183.00 1993.00 L 1174.00 1998.00 L 1164.00 2008.00 L 1116.00 2040.00 L 1063.00 2066.00 L 1056.00 2067.00 L 1043.00 2074.00 L 1019.00 2082.00 L 1008.00 2083.00 L 1000.00 2087.00 L 992.00 2087.00 L 984.00 2091.00 L 972.00 2091.00 L 963.00 2095.00 L 859.00 2095.00 L 851.00 2091.00 L 831.00 2091.00 L 782.00 2075.00 L 771.00 2074.00 L 740.00 2058.00 L 727.00 2054.00 L 718.00 2047.00 L 699.00 2038.00 L 649.00 2002.00 L 625.00 1980.00 L 592.00 1945.00 L 590.00 1940.00 L 568.00 1913.00 L 554.00 1890.00 L 521.00 1824.00 L 504.00 1774.00 L 503.00 1758.00 L 499.00 1749.00 L 499.00 1730.00 L 495.00 1721.00 L 495.00 1685.00 L 490.00 1676.00 L 481.00 1670.00 L 69.00 1670.00 L 58.00 1675.00 L 50.00 1682.00 L 42.00 1699.00 L 42.00 1751.00 L 46.00 1760.00 L 46.00 1783.00 L 51.00 1799.00 L 51.00 1817.00 L 55.00 1826.00 L 55.00 1845.00 L 59.00 1854.00 L 59.00 1861.00 L 63.00 1870.00 L 68.00 1897.00 L 84.00 1941.00 L 84.00 1949.00 L 89.00 1964.00 L 96.00 1977.00 L 105.00 2008.00 L 116.00 2029.00 L 121.00 2045.00 L 159.00 2117.00 L 233.00 2226.00 L 263.00 2256.00 L 274.00 2272.00 L 315.00 2313.00 L 325.00 2319.00 L 344.00 2337.00 L 353.00 2342.00 L 364.00 2353.00 L 373.00 2358.00 L 396.00 2377.00 L 450.00 2413.00 L 460.00 2416.00 L 523.00 2452.00 L 539.00 2457.00 L 560.00 2468.00 L 567.00 2469.00 L 602.00 2485.00 L 665.00 2506.00 L 693.00 2511.00 L 702.00 2515.00 L 713.00 2515.00 L 721.00 2519.00 L 733.00 2519.00 L 742.00 2523.00 L 753.00 2523.00 L 762.00 2527.00 L 781.00 2527.00 L 790.00 2531.00 L 833.00 2531.00 L 849.00 2536.00 L 986.00 2536.00 L 1002.00 2531.00 L 1024.00 2531.00 L 1033.00 2527.00 L 1048.00 2527.00 L 1057.00 2523.00 L 1069.00 2523.00 L 1077.00 2519.00 L 1089.00 2519.00 L 1097.00 2515.00 L 1105.00 2515.00 L 1113.00 2511.00 L 1141.00 2506.00 L 1228.00 2477.00 L 1251.00 2465.00 L 1267.00 2460.00 L 1364.00 2409.00 L 1418.00 2373.00 L 1429.00 2362.00 L 1438.00 2357.00 L 1449.00 2346.00 L 1483.00 2321.00 L 1514.00 2290.00 L 1524.00 2284.00 L 1531.00 2273.00 L 1566.00 2238.00 L 1576.00 2223.00 L 1594.00 2205.00 L 1599.00 2196.00 L 1618.00 2173.00 L 1666.00 2099.00 L 1713.00 2005.00 L 1743.00 1919.00 L 1743.00 1911.00 L 1747.00 1903.00 L 1747.00 1895.00 L 1755.00 1871.00 L 1755.00 1861.00 L 1760.00 1846.00 L 1760.00 1839.00 L 1764.00 1831.00 L 1764.00 1819.00 L 1768.00 1811.00 L 1768.00 1791.00 L 1772.00 1782.00 L 1772.00 1754.00 L 1776.00 1745.00 L 1776.00 1617.00 L 1772.00 1608.00 L 1772.00 1568.00 L 1768.00 1559.00 L 1768.00 1539.00 L 1764.00 1531.00 L 1764.00 1519.00 L 1756.00 1494.00 L 1755.00 1479.00 L 1751.00 1470.00 L 1751.00 1459.00 L 1739.00 1427.00 L 1739.00 1419.00 L 1735.00 1410.00 L 1730.00 1387.00 L 1718.00 1364.00 L 1713.00 1345.00 L 1694.00 1308.00 L 1689.00 1292.00 L 1677.00 1274.00 L 1659.00 1236.00 L 1619.00 1174.00 L 1592.00 1138.00 L 1569.00 1115.00 L 1563.00 1105.00 L 1486.00 1032.00 L 1476.00 1026.00 L 1462.00 1012.00 L 1441.00 996.00 L 1392.00 963.00 L 1382.00 954.00 L 1355.00 941.00 L 1316.00 917.00 L 1306.00 914.00 L 1297.00 907.00 L 1279.00 901.00 L 1271.00 892.00 L 1271.00 884.00 L 1274.00 877.00 L 1339.00 812.00 L 1344.00 803.00 L 1356.00 794.00 L 1365.00 782.00 L 1438.00 709.00 L 1444.00 699.00 L 1529.00 614.00 L 1535.00 604.00 L 1633.00 506.00 L 1646.00 486.00 L 1646.00 84.00 L 1636.00 69.00 L 1623.00 63.00 L 777.00 63.00 L 768.00 59.00 Z M 1937.00 1004.00 L 1937.00 1012.00 L 1933.00 1020.00 L 1932.00 1031.00 L 1924.00 1053.00 L 1924.00 1064.00 L 1920.00 1072.00 L 1920.00 1084.00 L 1912.00 1108.00 L 1912.00 1120.00 L 1908.00 1129.00 L 1908.00 1139.00 L 1904.00 1149.00 L 1903.00 1164.00 L 1899.00 1173.00 L 1899.00 1189.00 L 1895.00 1197.00 L 1895.00 1213.00 L 1891.00 1221.00 L 1891.00 1242.00 L 1887.00 1250.00 L 1887.00 1278.00 L 1883.00 1287.00 L 1883.00 1318.00 L 1878.00 1334.00 L 1878.00 1360.00 L 1874.00 1369.00 L 1874.00 1439.00 L 1870.00 1447.00 L 1870.00 1715.00 L 1874.00 1723.00 L 1874.00 1751.00 L 1878.00 1760.00 L 1878.00 1774.00 L 1883.00 1790.00 L 1883.00 1800.00 L 1887.00 1809.00 L 1887.00 1820.00 L 1891.00 1829.00 L 1891.00 1845.00 L 1895.00 1853.00 L 1895.00 1861.00 L 1899.00 1869.00 L 1900.00 1880.00 L 1911.00 1905.00 L 1912.00 1916.00 L 1929.00 1967.00 L 1944.00 2000.00 L 1946.00 2010.00 L 1957.00 2031.00 L 1959.00 2040.00 L 1992.00 2106.00 L 2011.00 2135.00 L 2017.00 2148.00 L 2078.00 2231.00 L 2158.00 2315.00 L 2167.00 2320.00 L 2183.00 2336.00 L 2208.00 2353.00 L 2239.00 2379.00 L 2267.00 2395.00 L 2278.00 2405.00 L 2299.00 2415.00 L 2328.00 2434.00 L 2396.00 2468.00 L 2450.00 2486.00 L 2478.00 2498.00 L 2485.00 2498.00 L 2506.00 2506.00 L 2517.00 2507.00 L 2542.00 2515.00 L 2553.00 2515.00 L 2562.00 2519.00 L 2574.00 2519.00 L 2582.00 2523.00 L 2598.00 2523.00 L 2606.00 2527.00 L 2634.00 2527.00 L 2643.00 2531.00 L 2678.00 2531.00 L 2694.00 2536.00 L 2789.00 2536.00 L 2805.00 2531.00 L 2839.00 2531.00 L 2848.00 2527.00 L 2868.00 2527.00 L 2892.00 2519.00 L 2904.00 2519.00 L 2929.00 2511.00 L 2944.00 2510.00 L 3004.00 2490.00 L 3015.00 2489.00 L 3048.00 2474.00 L 3078.00 2464.00 L 3158.00 2422.00 L 3204.00 2394.00 L 3211.00 2387.00 L 3232.00 2374.00 L 3284.00 2335.00 L 3307.00 2312.00 L 3316.00 2307.00 L 3358.00 2265.00 L 3364.00 2255.00 L 3383.00 2236.00 L 3388.00 2227.00 L 3407.00 2208.00 L 3434.00 2172.00 L 3439.00 2162.00 L 3437.00 2153.00 L 3376.00 2079.00 L 3363.00 2058.00 L 3321.00 2003.00 L 3279.00 1940.00 L 3269.00 1919.00 L 3239.00 1873.00 L 3213.00 1821.00 L 3208.00 1805.00 L 3184.00 1759.00 L 3179.00 1743.00 L 3163.00 1714.00 L 3156.00 1715.00 L 3152.00 1720.00 L 3147.00 1735.00 L 3147.00 1743.00 L 3139.00 1763.00 L 3138.00 1778.00 L 3129.00 1805.00 L 3122.00 1818.00 L 3121.00 1825.00 L 3106.00 1854.00 L 3105.00 1861.00 L 3096.00 1878.00 L 3062.00 1929.00 L 3052.00 1939.00 L 3046.00 1949.00 L 2988.00 2007.00 L 2979.00 2012.00 L 2968.00 2023.00 L 2933.00 2045.00 L 2891.00 2066.00 L 2872.00 2071.00 L 2847.00 2082.00 L 2836.00 2083.00 L 2811.00 2091.00 L 2796.00 2091.00 L 2787.00 2095.00 L 2742.00 2095.00 L 2733.00 2099.00 L 2716.00 2099.00 L 2707.00 2095.00 L 2666.00 2095.00 L 2658.00 2091.00 L 2646.00 2091.00 L 2638.00 2087.00 L 2630.00 2087.00 L 2591.00 2074.00 L 2578.00 2067.00 L 2568.00 2065.00 L 2517.00 2037.00 L 2458.00 1992.00 L 2423.00 1957.00 L 2369.00 1881.00 L 2344.00 1831.00 L 2328.00 1783.00 L 2327.00 1772.00 L 2323.00 1764.00 L 2323.00 1752.00 L 2319.00 1743.00 L 2319.00 1724.00 L 2315.00 1715.00 L 2315.00 1700.00 L 2310.00 1683.00 L 2311.00 1664.00 L 2315.00 1654.00 L 2315.00 1618.00 L 2319.00 1610.00 L 2319.00 1598.00 L 2323.00 1590.00 L 2323.00 1582.00 L 2327.00 1574.00 L 2327.00 1566.00 L 2331.00 1558.00 L 2332.00 1547.00 L 2340.00 1522.00 L 2348.00 1507.00 L 2349.00 1500.00 L 2375.00 1448.00 L 2391.00 1421.00 L 2414.00 1394.00 L 2420.00 1384.00 L 2453.00 1351.00 L 2462.00 1346.00 L 2489.00 1323.00 L 2531.00 1297.00 L 2586.00 1272.00 L 2613.00 1263.00 L 2620.00 1263.00 L 2629.00 1259.00 L 2640.00 1259.00 L 2649.00 1255.00 L 2664.00 1254.00 L 2689.00 1246.00 L 2768.00 1246.00 L 2777.00 1250.00 L 2800.00 1250.00 L 2810.00 1254.00 L 2825.00 1255.00 L 2830.00 1258.00 L 2841.00 1259.00 L 2907.00 1281.00 L 2970.00 1317.00 L 3022.00 1356.00 L 3049.00 1383.00 L 3057.00 1388.00 L 3065.00 1399.00 L 3088.00 1422.00 L 3105.00 1447.00 L 3116.00 1458.00 L 3160.00 1524.00 L 3173.00 1551.00 L 3180.00 1561.00 L 3181.00 1567.00 L 3188.00 1576.00 L 3197.00 1594.00 L 3206.00 1621.00 L 3217.00 1642.00 L 3227.00 1671.00 L 3234.00 1684.00 L 3240.00 1706.00 L 3276.00 1781.00 L 3277.00 1788.00 L 3286.00 1806.00 L 3293.00 1815.00 L 3311.00 1852.00 L 3316.00 1858.00 L 3324.00 1878.00 L 3330.00 1885.00 L 3340.00 1906.00 L 3408.00 2008.00 L 3430.00 2035.00 L 3435.00 2044.00 L 3454.00 2063.00 L 3476.00 2093.00 L 3503.00 2120.00 L 3513.00 2135.00 L 3544.00 2166.00 L 3553.00 2172.00 L 3573.00 2195.00 L 3588.00 2205.00 L 3619.00 2236.00 L 3649.00 2258.00 L 3664.00 2273.00 L 3761.00 2339.00 L 3801.00 2363.00 L 3828.00 2376.00 L 3839.00 2384.00 L 3891.00 2410.00 L 3898.00 2411.00 L 3965.00 2443.00 L 4079.00 2481.00 L 4090.00 2481.00 L 4120.00 2490.00 L 4127.00 2490.00 L 4147.00 2498.00 L 4159.00 2498.00 L 4183.00 2506.00 L 4206.00 2506.00 L 4222.00 2511.00 L 4240.00 2511.00 L 4249.00 2515.00 L 4264.00 2515.00 L 4273.00 2519.00 L 4297.00 2519.00 L 4305.00 2523.00 L 4351.00 2523.00 L 4359.00 2527.00 L 4554.00 2527.00 L 4562.00 2523.00 L 4591.00 2523.00 L 4599.00 2519.00 L 4615.00 2519.00 L 4624.00 2515.00 L 4647.00 2515.00 L 4656.00 2511.00 L 4670.00 2511.00 L 4686.00 2506.00 L 4704.00 2506.00 L 4729.00 2498.00 L 4737.00 2498.00 L 4745.00 2494.00 L 4757.00 2494.00 L 4765.00 2490.00 L 4793.00 2485.00 L 4813.00 2477.00 L 4821.00 2477.00 L 4884.00 2456.00 L 4897.00 2449.00 L 4904.00 2448.00 L 4917.00 2441.00 L 4949.00 2430.00 L 5053.00 2380.00 L 5062.00 2373.00 L 5091.00 2359.00 L 5098.00 2353.00 L 5139.00 2331.00 L 5181.00 2303.00 L 5191.00 2294.00 L 5205.00 2287.00 L 5219.00 2274.00 L 5261.00 2244.00 L 5304.00 2206.00 L 5314.00 2200.00 L 5409.00 2105.00 L 5419.00 2090.00 L 5442.00 2067.00 L 5459.00 2042.00 L 5470.00 2031.00 L 5475.00 2022.00 L 5497.00 1995.00 L 5539.00 1932.00 L 5603.00 1817.00 L 5640.00 1730.00 L 5641.00 1719.00 L 5661.00 1663.00 L 5662.00 1651.00 L 5674.00 1619.00 L 5674.00 1612.00 L 5678.00 1603.00 L 5678.00 1592.00 L 5682.00 1583.00 L 5682.00 1573.00 L 5687.00 1556.00 L 5687.00 1539.00 L 5695.00 1514.00 L 5695.00 1502.00 L 5699.00 1494.00 L 5699.00 1482.00 L 5703.00 1474.00 L 5704.00 1463.00 L 5711.00 1446.00 L 5712.00 1435.00 L 5717.00 1420.00 L 5724.00 1407.00 L 5737.00 1368.00 L 5773.00 1300.00 L 5809.00 1250.00 L 5883.00 1176.00 L 5911.00 1156.00 L 5947.00 1136.00 L 5968.00 1121.00 L 6039.00 1092.00 L 6046.00 1092.00 L 6055.00 1088.00 L 6066.00 1087.00 L 6071.00 1084.00 L 6082.00 1083.00 L 6107.00 1075.00 L 6122.00 1075.00 L 6131.00 1071.00 L 6242.00 1071.00 L 6250.00 1075.00 L 6270.00 1075.00 L 6279.00 1079.00 L 6290.00 1079.00 L 6299.00 1083.00 L 6310.00 1084.00 L 6361.00 1101.00 L 6403.00 1120.00 L 6468.00 1159.00 L 6488.00 1174.00 L 6515.00 1201.00 L 6524.00 1206.00 L 6566.00 1252.00 L 6611.00 1319.00 L 6621.00 1340.00 L 6627.00 1347.00 L 6648.00 1393.00 L 6665.00 1444.00 L 6665.00 1452.00 L 6669.00 1460.00 L 6669.00 1467.00 L 6673.00 1476.00 L 6674.00 1492.00 L 6678.00 1502.00 L 6678.00 1524.00 L 6682.00 1533.00 L 6682.00 1591.00 L 6678.00 1600.00 L 6678.00 1626.00 L 6673.00 1642.00 L 6673.00 1661.00 L 6669.00 1669.00 L 6665.00 1693.00 L 6653.00 1725.00 L 6652.00 1736.00 L 6633.00 1777.00 L 6627.00 1795.00 L 6598.00 1848.00 L 6560.00 1903.00 L 6545.00 1918.00 L 6539.00 1928.00 L 6489.00 1978.00 L 6434.00 2016.00 L 6380.00 2045.00 L 6373.00 2046.00 L 6352.00 2057.00 L 6345.00 2058.00 L 6332.00 2065.00 L 6305.00 2074.00 L 6295.00 2074.00 L 6285.00 2078.00 L 6270.00 2079.00 L 6261.00 2083.00 L 6250.00 2083.00 L 6241.00 2087.00 L 6200.00 2087.00 L 6192.00 2091.00 L 6164.00 2091.00 L 6156.00 2087.00 L 6119.00 2087.00 L 6110.00 2083.00 L 6095.00 2082.00 L 6090.00 2079.00 L 6071.00 2078.00 L 5996.00 2053.00 L 5967.00 2038.00 L 5957.00 2035.00 L 5899.00 1998.00 L 5866.00 1973.00 L 5821.00 1928.00 L 5815.00 1918.00 L 5792.00 1895.00 L 5758.00 1840.00 L 5724.00 1772.00 L 5720.00 1759.00 L 5715.00 1754.00 L 5710.00 1754.00 L 5706.00 1758.00 L 5700.00 1779.00 L 5685.00 1808.00 L 5683.00 1816.00 L 5678.00 1822.00 L 5664.00 1850.00 L 5663.00 1857.00 L 5652.00 1879.00 L 5605.00 1960.00 L 5553.00 2038.00 L 5517.00 2086.00 L 5495.00 2109.00 L 5474.00 2138.00 L 5456.00 2157.00 L 5451.00 2170.00 L 5461.00 2187.00 L 5492.00 2227.00 L 5532.00 2267.00 L 5537.00 2276.00 L 5560.00 2299.00 L 5569.00 2304.00 L 5589.00 2324.00 L 5598.00 2329.00 L 5629.00 2356.00 L 5690.00 2398.00 L 5729.00 2419.00 L 5738.00 2426.00 L 5780.00 2447.00 L 5787.00 2448.00 L 5811.00 2460.00 L 5820.00 2462.00 L 5841.00 2473.00 L 5889.00 2489.00 L 5900.00 2490.00 L 5932.00 2502.00 L 5940.00 2502.00 L 5981.00 2515.00 L 5996.00 2515.00 L 6005.00 2519.00 L 6021.00 2519.00 L 6029.00 2523.00 L 6053.00 2523.00 L 6062.00 2527.00 L 6094.00 2527.00 L 6103.00 2531.00 L 6137.00 2531.00 L 6153.00 2536.00 L 6219.00 2536.00 L 6235.00 2531.00 L 6278.00 2531.00 L 6287.00 2527.00 L 6307.00 2527.00 L 6315.00 2523.00 L 6339.00 2523.00 L 6364.00 2515.00 L 6375.00 2515.00 L 6420.00 2502.00 L 6428.00 2502.00 L 6436.00 2498.00 L 6444.00 2498.00 L 6464.00 2490.00 L 6475.00 2489.00 L 6499.00 2481.00 L 6512.00 2474.00 L 6519.00 2473.00 L 6532.00 2466.00 L 6548.00 2461.00 L 6626.00 2422.00 L 6669.00 2394.00 L 6678.00 2394.00 L 6682.00 2399.00 L 6682.00 2484.00 L 6690.00 2503.00 L 6702.00 2515.00 L 6710.00 2519.00 L 7090.00 2519.00 L 7107.00 2510.00 L 7118.00 2491.00 L 7118.00 734.00 L 7110.00 718.00 L 7102.00 711.00 L 7091.00 706.00 L 6708.00 706.00 L 6695.00 713.00 L 6689.00 719.00 L 6683.00 730.00 L 6681.00 766.00 L 6678.00 768.00 L 6668.00 768.00 L 6587.00 727.00 L 6580.00 726.00 L 6539.00 707.00 L 6453.00 677.00 L 6442.00 676.00 L 6406.00 664.00 L 6394.00 664.00 L 6386.00 660.00 L 6374.00 660.00 L 6365.00 656.00 L 6355.00 656.00 L 6339.00 651.00 L 6326.00 651.00 L 6316.00 647.00 L 6280.00 647.00 L 6272.00 643.00 L 6235.00 643.00 L 6227.00 639.00 L 6138.00 639.00 L 6129.00 643.00 L 6109.00 643.00 L 6101.00 647.00 L 6064.00 647.00 L 6055.00 651.00 L 6032.00 652.00 L 6007.00 660.00 L 5995.00 660.00 L 5987.00 664.00 L 5975.00 664.00 L 5967.00 668.00 L 5955.00 668.00 L 5946.00 672.00 L 5935.00 673.00 L 5903.00 685.00 L 5895.00 685.00 L 5882.00 692.00 L 5816.00 714.00 L 5769.00 738.00 L 5753.00 743.00 L 5709.00 765.00 L 5695.00 775.00 L 5681.00 781.00 L 5668.00 792.00 L 5654.00 799.00 L 5633.00 814.00 L 5619.00 821.00 L 5605.00 834.00 L 5579.00 852.00 L 5568.00 863.00 L 5559.00 868.00 L 5548.00 879.00 L 5539.00 884.00 L 5458.00 965.00 L 5452.00 975.00 L 5438.00 989.00 L 5420.00 1015.00 L 5409.00 1026.00 L 5363.00 1095.00 L 5336.00 1142.00 L 5329.00 1161.00 L 5318.00 1177.00 L 5317.00 1184.00 L 5305.00 1208.00 L 5304.00 1215.00 L 5292.00 1238.00 L 5259.00 1342.00 L 5259.00 1349.00 L 5246.00 1394.00 L 5246.00 1405.00 L 5238.00 1430.00 L 5238.00 1441.00 L 5234.00 1450.00 L 5233.00 1461.00 L 5217.00 1505.00 L 5217.00 1513.00 L 5212.00 1528.00 L 5205.00 1541.00 L 5200.00 1560.00 L 5193.00 1573.00 L 5183.00 1603.00 L 5133.00 1698.00 L 5091.00 1761.00 L 5075.00 1782.00 L 5061.00 1796.00 L 5056.00 1805.00 L 4977.00 1884.00 L 4921.00 1927.00 L 4845.00 1976.00 L 4779.00 2011.00 L 4772.00 2012.00 L 4729.00 2032.00 L 4678.00 2049.00 L 4667.00 2050.00 L 4630.00 2062.00 L 4618.00 2062.00 L 4610.00 2066.00 L 4602.00 2066.00 L 4594.00 2070.00 L 4582.00 2070.00 L 4574.00 2074.00 L 4555.00 2074.00 L 4539.00 2079.00 L 4496.00 2079.00 L 4487.00 2083.00 L 4401.00 2083.00 L 4392.00 2079.00 L 4344.00 2079.00 L 4328.00 2074.00 L 4310.00 2074.00 L 4286.00 2066.00 L 4270.00 2066.00 L 4261.00 2062.00 L 4234.00 2057.00 L 4217.00 2050.00 L 4190.00 2045.00 L 4151.00 2032.00 L 4128.00 2022.00 L 4122.00 2017.00 L 4092.00 2007.00 L 4015.00 1966.00 L 3925.00 1902.00 L 3901.00 1878.00 L 3892.00 1873.00 L 3884.00 1861.00 L 3863.00 1844.00 L 3823.00 1800.00 L 3805.00 1774.00 L 3792.00 1760.00 L 3742.00 1685.00 L 3684.00 1574.00 L 3678.00 1556.00 L 3642.00 1485.00 L 3641.00 1478.00 L 3577.00 1346.00 L 3554.00 1309.00 L 3540.00 1280.00 L 3524.00 1256.00 L 3514.00 1245.00 L 3507.00 1231.00 L 3496.00 1218.00 L 3475.00 1185.00 L 3456.00 1166.00 L 3450.00 1156.00 L 3423.00 1129.00 L 3417.00 1119.00 L 3353.00 1055.00 L 3344.00 1050.00 L 3329.00 1035.00 L 3303.00 1017.00 L 3273.00 992.00 L 3247.00 977.00 L 3214.00 954.00 L 3131.00 910.00 L 3115.00 905.00 L 3074.00 886.00 L 3055.00 881.00 L 3042.00 874.00 L 3028.00 872.00 L 2996.00 860.00 L 2988.00 860.00 L 2952.00 848.00 L 2937.00 847.00 L 2912.00 839.00 L 2896.00 839.00 L 2887.00 835.00 L 2872.00 835.00 L 2863.00 831.00 L 2835.00 831.00 L 2826.00 827.00 L 2799.00 827.00 L 2789.00 823.00 L 2689.00 823.00 L 2680.00 827.00 L 2652.00 827.00 L 2644.00 831.00 L 2619.00 831.00 L 2611.00 835.00 L 2591.00 835.00 L 2582.00 839.00 L 2567.00 839.00 L 2558.00 843.00 L 2543.00 844.00 L 2510.00 856.00 L 2494.00 856.00 L 2491.00 854.00 L 2490.00 843.00 L 2507.00 813.00 L 2542.00 765.00 L 2557.00 750.00 L 2562.00 741.00 L 2652.00 651.00 L 2677.00 634.00 L 2688.00 623.00 L 2740.00 588.00 L 2777.00 570.00 L 2786.00 563.00 L 2801.00 558.00 L 2823.00 546.00 L 2897.00 520.00 L 2905.00 520.00 L 2925.00 512.00 L 2933.00 512.00 L 2941.00 508.00 L 2951.00 508.00 L 2967.00 503.00 L 2977.00 503.00 L 2986.00 499.00 L 3006.00 499.00 L 3014.00 495.00 L 3047.00 495.00 L 3062.00 483.00 L 3066.00 474.00 L 3066.00 67.00 L 3061.00 55.00 L 3048.00 47.00 L 3032.00 46.00 L 3016.00 51.00 L 2981.00 51.00 L 2972.00 55.00 L 2949.00 55.00 L 2940.00 59.00 L 2920.00 59.00 L 2912.00 63.00 L 2891.00 63.00 L 2883.00 67.00 L 2863.00 67.00 L 2854.00 71.00 L 2839.00 72.00 L 2814.00 80.00 L 2803.00 80.00 L 2782.00 88.00 L 2771.00 88.00 L 2692.00 114.00 L 2637.00 138.00 L 2630.00 139.00 L 2585.00 162.00 L 2559.00 172.00 L 2517.00 198.00 L 2490.00 211.00 L 2463.00 229.00 L 2456.00 236.00 L 2439.00 245.00 L 2412.00 267.00 L 2387.00 284.00 L 2359.00 312.00 L 2350.00 317.00 L 2262.00 405.00 L 2256.00 415.00 L 2237.00 434.00 L 2232.00 443.00 L 2213.00 462.00 L 2207.00 472.00 L 2177.00 507.00 L 2113.00 601.00 L 2054.00 702.00 L 2045.00 725.00 L 2039.00 733.00 L 2036.00 744.00 L 2017.00 781.00 L 2016.00 788.00 L 1996.00 831.00 L 1982.00 873.00 L 1975.00 886.00 L 1954.00 949.00 L 1953.00 960.00 Z M 7654.00 42.00 L 7645.00 46.00 L 7634.00 47.00 L 7621.00 54.00 L 7594.00 63.00 L 7560.00 82.00 L 7524.00 109.00 L 7487.00 150.00 L 7471.00 176.00 L 7446.00 231.00 L 7445.00 242.00 L 7441.00 251.00 L 7441.00 262.00 L 7437.00 271.00 L 7437.00 342.00 L 7441.00 350.00 L 7441.00 361.00 L 7445.00 370.00 L 7447.00 384.00 L 7462.00 417.00 L 7463.00 424.00 L 7471.00 435.00 L 7480.00 454.00 L 7493.00 468.00 L 7504.00 484.00 L 7529.00 509.00 L 7544.00 519.00 L 7555.00 530.00 L 7580.00 545.00 L 7596.00 550.00 L 7609.00 557.00 L 7624.00 562.00 L 7632.00 562.00 L 7640.00 566.00 L 7648.00 566.00 L 7656.00 570.00 L 7734.00 570.00 L 7742.00 566.00 L 7754.00 566.00 L 7781.00 557.00 L 7837.00 531.00 L 7851.00 518.00 L 7860.00 513.00 L 7887.00 486.00 L 7892.00 477.00 L 7903.00 466.00 L 7935.00 412.00 L 7948.00 373.00 L 7948.00 363.00 L 7953.00 347.00 L 7953.00 329.00 L 7955.00 325.00 L 7953.00 317.00 L 7953.00 269.00 L 7949.00 259.00 L 7948.00 244.00 L 7935.00 205.00 L 7913.00 161.00 L 7890.00 129.00 L 7857.00 96.00 L 7827.00 76.00 L 7785.00 55.00 L 7764.00 47.00 L 7749.00 46.00 L 7740.00 42.00 Z M 5586.00 745.00 L 5559.00 700.00 L 5553.00 686.00 L 5516.00 630.00 L 5488.00 582.00 L 5466.00 555.00 L 5461.00 546.00 L 5450.00 535.00 L 5445.00 526.00 L 5434.00 515.00 L 5429.00 506.00 L 5418.00 495.00 L 5412.00 485.00 L 5390.00 463.00 L 5380.00 448.00 L 5310.00 378.00 L 5295.00 368.00 L 5240.00 317.00 L 5231.00 312.00 L 5156.00 254.00 L 5094.00 214.00 L 4966.00 148.00 L 4922.00 133.00 L 4881.00 114.00 L 4870.00 113.00 L 4771.00 80.00 L 4759.00 80.00 L 4750.00 76.00 L 4739.00 75.00 L 4729.00 71.00 L 4719.00 71.00 L 4694.00 63.00 L 4678.00 63.00 L 4670.00 59.00 L 4654.00 59.00 L 4646.00 55.00 L 4630.00 55.00 L 4621.00 51.00 L 4600.00 51.00 L 4583.00 46.00 L 4548.00 46.00 L 4539.00 42.00 L 4370.00 42.00 L 4361.00 46.00 L 4334.00 46.00 L 4318.00 51.00 L 4300.00 51.00 L 4291.00 55.00 L 4276.00 55.00 L 4267.00 59.00 L 4251.00 59.00 L 4243.00 63.00 L 4227.00 63.00 L 4218.00 67.00 L 4211.00 67.00 L 4202.00 71.00 L 4187.00 72.00 L 4162.00 80.00 L 4151.00 80.00 L 4102.00 96.00 L 4091.00 97.00 L 4055.00 109.00 L 4039.00 117.00 L 4008.00 126.00 L 3995.00 133.00 L 3967.00 142.00 L 3945.00 154.00 L 3938.00 155.00 L 3925.00 163.00 L 3913.00 167.00 L 3869.00 189.00 L 3855.00 199.00 L 3823.00 214.00 L 3743.00 267.00 L 3726.00 276.00 L 3715.00 287.00 L 3669.00 321.00 L 3654.00 336.00 L 3645.00 341.00 L 3622.00 363.00 L 3612.00 369.00 L 3537.00 444.00 L 3507.00 483.00 L 3484.00 506.00 L 3479.00 515.00 L 3433.00 574.00 L 3387.00 645.00 L 3366.00 684.00 L 3356.00 698.00 L 3338.00 736.00 L 3329.00 749.00 L 3326.00 760.00 L 3314.00 783.00 L 3313.00 790.00 L 3285.00 849.00 L 3284.00 856.00 L 3273.00 881.00 L 3272.00 891.00 L 3274.00 897.00 L 3281.00 905.00 L 3318.00 930.00 L 3329.00 941.00 L 3363.00 966.00 L 3474.00 1077.00 L 3479.00 1086.00 L 3538.00 1158.00 L 3547.00 1175.00 L 3560.00 1189.00 L 3625.00 1286.00 L 3631.00 1291.00 L 3637.00 1291.00 L 3642.00 1288.00 L 3646.00 1280.00 L 3646.00 1256.00 L 3650.00 1248.00 L 3650.00 1232.00 L 3654.00 1223.00 L 3654.00 1204.00 L 3667.00 1163.00 L 3667.00 1156.00 L 3671.00 1147.00 L 3671.00 1139.00 L 3675.00 1131.00 L 3675.00 1123.00 L 3679.00 1115.00 L 3680.00 1104.00 L 3701.00 1041.00 L 3708.00 1028.00 L 3713.00 1009.00 L 3741.00 950.00 L 3742.00 943.00 L 3753.00 926.00 L 3755.00 918.00 L 3771.00 889.00 L 3819.00 815.00 L 3826.00 808.00 L 3843.00 783.00 L 3858.00 768.00 L 3864.00 758.00 L 3930.00 692.00 L 3939.00 687.00 L 3963.00 663.00 L 3984.00 650.00 L 3991.00 643.00 L 4034.00 613.00 L 4078.00 589.00 L 4085.00 583.00 L 4109.00 571.00 L 4116.00 570.00 L 4126.00 563.00 L 4134.00 561.00 L 4155.00 550.00 L 4174.00 545.00 L 4210.00 529.00 L 4226.00 524.00 L 4233.00 524.00 L 4265.00 512.00 L 4276.00 512.00 L 4297.00 504.00 L 4308.00 503.00 L 4317.00 499.00 L 4328.00 499.00 L 4337.00 495.00 L 4353.00 495.00 L 4361.00 491.00 L 4394.00 491.00 L 4402.00 487.00 L 4527.00 487.00 L 4536.00 491.00 L 4564.00 491.00 L 4573.00 495.00 L 4588.00 495.00 L 4597.00 499.00 L 4624.00 504.00 L 4641.00 511.00 L 4652.00 512.00 L 4680.00 524.00 L 4691.00 525.00 L 4704.00 532.00 L 4726.00 538.00 L 4764.00 558.00 L 4780.00 563.00 L 4798.00 572.00 L 4812.00 582.00 L 4826.00 588.00 L 4865.00 612.00 L 4891.00 633.00 L 4929.00 659.00 L 4962.00 687.00 L 5033.00 758.00 L 5082.00 820.00 L 5132.00 899.00 L 5170.00 974.00 L 5171.00 981.00 L 5183.00 1004.00 L 5197.00 1046.00 L 5204.00 1059.00 L 5217.00 1098.00 L 5217.00 1106.00 L 5225.00 1126.00 L 5226.00 1145.00 L 5231.00 1159.00 L 5235.00 1162.00 L 5243.00 1162.00 L 5247.00 1159.00 L 5274.00 1109.00 L 5331.00 1021.00 L 5336.00 1010.00 L 5349.00 996.00 L 5375.00 958.00 L 5432.00 897.00 L 5443.00 881.00 L 5484.00 840.00 L 5493.00 835.00 L 5545.00 788.00 L 5554.00 783.00 L 5582.00 759.00 L 5586.00 752.00 Z" fill-rule="evenodd"/></clipPath>
</defs>
<g clip-path="url(#logoClip)">
  <path d="M 7502.00 710.00 L 7483.00 719.00 L 7473.00 728.00 L 7462.00 751.00 L 7462.00 771.00 L 7466.00 780.00 L 7466.00 2178.00 L 7462.00 2186.00 L 7462.00 2194.00 L 7466.00 2203.00 L 7466.00 2403.00 L 7462.00 2412.00 L 7462.00 2428.00 L 7466.00 2436.00 L 7466.00 2506.00 L 7470.00 2515.00 L 7483.00 2528.00 L 7501.00 2536.00 L 7574.00 2536.00 L 7580.00 2539.00 L 7585.00 2539.00 L 7590.00 2536.00 L 7791.00 2536.00 L 7800.00 2540.00 L 7815.00 2540.00 L 7824.00 2536.00 L 7902.00 2535.00 L 7915.00 2528.00 L 7924.00 2519.00 L 7932.00 2502.00 L 7932.00 743.00 L 7922.00 724.00 L 7913.00 716.00 L 7900.00 710.00 Z M 188.00 60.00 L 167.00 71.00 L 155.00 90.00 L 155.00 156.00 L 151.00 165.00 L 151.00 368.00 L 155.00 377.00 L 155.00 432.00 L 153.00 443.00 L 157.00 468.00 L 176.00 486.00 L 1024.00 487.00 L 1026.00 489.00 L 1026.00 501.00 L 822.00 705.00 L 815.00 715.00 L 800.00 728.00 L 797.00 734.00 L 781.00 746.00 L 675.00 852.00 L 669.00 861.00 L 634.00 893.00 L 623.00 909.00 L 559.00 973.00 L 556.00 978.00 L 556.00 990.00 L 588.00 1037.00 L 601.00 1051.00 L 612.00 1069.00 L 645.00 1111.00 L 658.00 1132.00 L 758.00 1265.00 L 763.00 1267.00 L 776.00 1267.00 L 813.00 1255.00 L 832.00 1254.00 L 842.00 1250.00 L 853.00 1250.00 L 861.00 1246.00 L 894.00 1246.00 L 902.00 1242.00 L 941.00 1242.00 L 950.00 1246.00 L 965.00 1246.00 L 974.00 1250.00 L 989.00 1250.00 L 1019.00 1259.00 L 1026.00 1259.00 L 1039.00 1266.00 L 1050.00 1267.00 L 1076.00 1276.00 L 1144.00 1314.00 L 1171.00 1337.00 L 1181.00 1343.00 L 1218.00 1380.00 L 1225.00 1391.00 L 1239.00 1405.00 L 1269.00 1452.00 L 1298.00 1514.00 L 1310.00 1550.00 L 1311.00 1561.00 L 1315.00 1569.00 L 1315.00 1581.00 L 1319.00 1590.00 L 1319.00 1605.00 L 1323.00 1614.00 L 1323.00 1731.00 L 1319.00 1740.00 L 1319.00 1752.00 L 1315.00 1760.00 L 1315.00 1772.00 L 1311.00 1780.00 L 1311.00 1788.00 L 1297.00 1830.00 L 1286.00 1850.00 L 1281.00 1865.00 L 1274.00 1874.00 L 1260.00 1903.00 L 1232.00 1940.00 L 1222.00 1950.00 L 1217.00 1959.00 L 1183.00 1993.00 L 1174.00 1998.00 L 1164.00 2008.00 L 1116.00 2040.00 L 1063.00 2066.00 L 1056.00 2067.00 L 1043.00 2074.00 L 1019.00 2082.00 L 1008.00 2083.00 L 1000.00 2087.00 L 992.00 2087.00 L 984.00 2091.00 L 972.00 2091.00 L 963.00 2095.00 L 859.00 2095.00 L 851.00 2091.00 L 831.00 2091.00 L 782.00 2075.00 L 771.00 2074.00 L 740.00 2058.00 L 727.00 2054.00 L 718.00 2047.00 L 699.00 2038.00 L 649.00 2002.00 L 625.00 1980.00 L 592.00 1945.00 L 590.00 1940.00 L 568.00 1913.00 L 554.00 1890.00 L 521.00 1824.00 L 504.00 1774.00 L 503.00 1758.00 L 499.00 1749.00 L 499.00 1730.00 L 495.00 1721.00 L 495.00 1685.00 L 490.00 1676.00 L 481.00 1670.00 L 69.00 1670.00 L 58.00 1675.00 L 50.00 1682.00 L 42.00 1699.00 L 42.00 1751.00 L 46.00 1760.00 L 46.00 1783.00 L 51.00 1799.00 L 51.00 1817.00 L 55.00 1826.00 L 55.00 1845.00 L 59.00 1854.00 L 59.00 1861.00 L 63.00 1870.00 L 68.00 1897.00 L 84.00 1941.00 L 84.00 1949.00 L 89.00 1964.00 L 96.00 1977.00 L 105.00 2008.00 L 116.00 2029.00 L 121.00 2045.00 L 159.00 2117.00 L 233.00 2226.00 L 263.00 2256.00 L 274.00 2272.00 L 315.00 2313.00 L 325.00 2319.00 L 344.00 2337.00 L 353.00 2342.00 L 364.00 2353.00 L 373.00 2358.00 L 396.00 2377.00 L 450.00 2413.00 L 460.00 2416.00 L 523.00 2452.00 L 539.00 2457.00 L 560.00 2468.00 L 567.00 2469.00 L 602.00 2485.00 L 665.00 2506.00 L 693.00 2511.00 L 702.00 2515.00 L 713.00 2515.00 L 721.00 2519.00 L 733.00 2519.00 L 742.00 2523.00 L 753.00 2523.00 L 762.00 2527.00 L 781.00 2527.00 L 790.00 2531.00 L 833.00 2531.00 L 849.00 2536.00 L 986.00 2536.00 L 1002.00 2531.00 L 1024.00 2531.00 L 1033.00 2527.00 L 1048.00 2527.00 L 1057.00 2523.00 L 1069.00 2523.00 L 1077.00 2519.00 L 1089.00 2519.00 L 1097.00 2515.00 L 1105.00 2515.00 L 1113.00 2511.00 L 1141.00 2506.00 L 1228.00 2477.00 L 1251.00 2465.00 L 1267.00 2460.00 L 1364.00 2409.00 L 1418.00 2373.00 L 1429.00 2362.00 L 1438.00 2357.00 L 1449.00 2346.00 L 1483.00 2321.00 L 1514.00 2290.00 L 1524.00 2284.00 L 1531.00 2273.00 L 1566.00 2238.00 L 1576.00 2223.00 L 1594.00 2205.00 L 1599.00 2196.00 L 1618.00 2173.00 L 1666.00 2099.00 L 1713.00 2005.00 L 1743.00 1919.00 L 1743.00 1911.00 L 1747.00 1903.00 L 1747.00 1895.00 L 1755.00 1871.00 L 1755.00 1861.00 L 1760.00 1846.00 L 1760.00 1839.00 L 1764.00 1831.00 L 1764.00 1819.00 L 1768.00 1811.00 L 1768.00 1791.00 L 1772.00 1782.00 L 1772.00 1754.00 L 1776.00 1745.00 L 1776.00 1617.00 L 1772.00 1608.00 L 1772.00 1568.00 L 1768.00 1559.00 L 1768.00 1539.00 L 1764.00 1531.00 L 1764.00 1519.00 L 1756.00 1494.00 L 1755.00 1479.00 L 1751.00 1470.00 L 1751.00 1459.00 L 1739.00 1427.00 L 1739.00 1419.00 L 1735.00 1410.00 L 1730.00 1387.00 L 1718.00 1364.00 L 1713.00 1345.00 L 1694.00 1308.00 L 1689.00 1292.00 L 1677.00 1274.00 L 1659.00 1236.00 L 1619.00 1174.00 L 1592.00 1138.00 L 1569.00 1115.00 L 1563.00 1105.00 L 1486.00 1032.00 L 1476.00 1026.00 L 1462.00 1012.00 L 1441.00 996.00 L 1392.00 963.00 L 1382.00 954.00 L 1355.00 941.00 L 1316.00 917.00 L 1306.00 914.00 L 1297.00 907.00 L 1279.00 901.00 L 1271.00 892.00 L 1271.00 884.00 L 1274.00 877.00 L 1339.00 812.00 L 1344.00 803.00 L 1356.00 794.00 L 1365.00 782.00 L 1438.00 709.00 L 1444.00 699.00 L 1529.00 614.00 L 1535.00 604.00 L 1633.00 506.00 L 1646.00 486.00 L 1646.00 84.00 L 1636.00 69.00 L 1623.00 63.00 L 777.00 63.00 L 768.00 59.00 Z M 1937.00 1004.00 L 1937.00 1012.00 L 1933.00 1020.00 L 1932.00 1031.00 L 1924.00 1053.00 L 1924.00 1064.00 L 1920.00 1072.00 L 1920.00 1084.00 L 1912.00 1108.00 L 1912.00 1120.00 L 1908.00 1129.00 L 1908.00 1139.00 L 1904.00 1149.00 L 1903.00 1164.00 L 1899.00 1173.00 L 1899.00 1189.00 L 1895.00 1197.00 L 1895.00 1213.00 L 1891.00 1221.00 L 1891.00 1242.00 L 1887.00 1250.00 L 1887.00 1278.00 L 1883.00 1287.00 L 1883.00 1318.00 L 1878.00 1334.00 L 1878.00 1360.00 L 1874.00 1369.00 L 1874.00 1439.00 L 1870.00 1447.00 L 1870.00 1715.00 L 1874.00 1723.00 L 1874.00 1751.00 L 1878.00 1760.00 L 1878.00 1774.00 L 1883.00 1790.00 L 1883.00 1800.00 L 1887.00 1809.00 L 1887.00 1820.00 L 1891.00 1829.00 L 1891.00 1845.00 L 1895.00 1853.00 L 1895.00 1861.00 L 1899.00 1869.00 L 1900.00 1880.00 L 1911.00 1905.00 L 1912.00 1916.00 L 1929.00 1967.00 L 1944.00 2000.00 L 1946.00 2010.00 L 1957.00 2031.00 L 1959.00 2040.00 L 1992.00 2106.00 L 2011.00 2135.00 L 2017.00 2148.00 L 2078.00 2231.00 L 2158.00 2315.00 L 2167.00 2320.00 L 2183.00 2336.00 L 2208.00 2353.00 L 2239.00 2379.00 L 2267.00 2395.00 L 2278.00 2405.00 L 2299.00 2415.00 L 2328.00 2434.00 L 2396.00 2468.00 L 2450.00 2486.00 L 2478.00 2498.00 L 2485.00 2498.00 L 2506.00 2506.00 L 2517.00 2507.00 L 2542.00 2515.00 L 2553.00 2515.00 L 2562.00 2519.00 L 2574.00 2519.00 L 2582.00 2523.00 L 2598.00 2523.00 L 2606.00 2527.00 L 2634.00 2527.00 L 2643.00 2531.00 L 2678.00 2531.00 L 2694.00 2536.00 L 2789.00 2536.00 L 2805.00 2531.00 L 2839.00 2531.00 L 2848.00 2527.00 L 2868.00 2527.00 L 2892.00 2519.00 L 2904.00 2519.00 L 2929.00 2511.00 L 2944.00 2510.00 L 3004.00 2490.00 L 3015.00 2489.00 L 3048.00 2474.00 L 3078.00 2464.00 L 3158.00 2422.00 L 3204.00 2394.00 L 3211.00 2387.00 L 3232.00 2374.00 L 3284.00 2335.00 L 3307.00 2312.00 L 3316.00 2307.00 L 3358.00 2265.00 L 3364.00 2255.00 L 3383.00 2236.00 L 3388.00 2227.00 L 3407.00 2208.00 L 3434.00 2172.00 L 3439.00 2162.00 L 3437.00 2153.00 L 3376.00 2079.00 L 3363.00 2058.00 L 3321.00 2003.00 L 3279.00 1940.00 L 3269.00 1919.00 L 3239.00 1873.00 L 3213.00 1821.00 L 3208.00 1805.00 L 3184.00 1759.00 L 3179.00 1743.00 L 3163.00 1714.00 L 3156.00 1715.00 L 3152.00 1720.00 L 3147.00 1735.00 L 3147.00 1743.00 L 3139.00 1763.00 L 3138.00 1778.00 L 3129.00 1805.00 L 3122.00 1818.00 L 3121.00 1825.00 L 3106.00 1854.00 L 3105.00 1861.00 L 3096.00 1878.00 L 3062.00 1929.00 L 3052.00 1939.00 L 3046.00 1949.00 L 2988.00 2007.00 L 2979.00 2012.00 L 2968.00 2023.00 L 2933.00 2045.00 L 2891.00 2066.00 L 2872.00 2071.00 L 2847.00 2082.00 L 2836.00 2083.00 L 2811.00 2091.00 L 2796.00 2091.00 L 2787.00 2095.00 L 2742.00 2095.00 L 2733.00 2099.00 L 2716.00 2099.00 L 2707.00 2095.00 L 2666.00 2095.00 L 2658.00 2091.00 L 2646.00 2091.00 L 2638.00 2087.00 L 2630.00 2087.00 L 2591.00 2074.00 L 2578.00 2067.00 L 2568.00 2065.00 L 2517.00 2037.00 L 2458.00 1992.00 L 2423.00 1957.00 L 2369.00 1881.00 L 2344.00 1831.00 L 2328.00 1783.00 L 2327.00 1772.00 L 2323.00 1764.00 L 2323.00 1752.00 L 2319.00 1743.00 L 2319.00 1724.00 L 2315.00 1715.00 L 2315.00 1700.00 L 2310.00 1683.00 L 2311.00 1664.00 L 2315.00 1654.00 L 2315.00 1618.00 L 2319.00 1610.00 L 2319.00 1598.00 L 2323.00 1590.00 L 2323.00 1582.00 L 2327.00 1574.00 L 2327.00 1566.00 L 2331.00 1558.00 L 2332.00 1547.00 L 2340.00 1522.00 L 2348.00 1507.00 L 2349.00 1500.00 L 2375.00 1448.00 L 2391.00 1421.00 L 2414.00 1394.00 L 2420.00 1384.00 L 2453.00 1351.00 L 2462.00 1346.00 L 2489.00 1323.00 L 2531.00 1297.00 L 2586.00 1272.00 L 2613.00 1263.00 L 2620.00 1263.00 L 2629.00 1259.00 L 2640.00 1259.00 L 2649.00 1255.00 L 2664.00 1254.00 L 2689.00 1246.00 L 2768.00 1246.00 L 2777.00 1250.00 L 2800.00 1250.00 L 2810.00 1254.00 L 2825.00 1255.00 L 2830.00 1258.00 L 2841.00 1259.00 L 2907.00 1281.00 L 2970.00 1317.00 L 3022.00 1356.00 L 3049.00 1383.00 L 3057.00 1388.00 L 3065.00 1399.00 L 3088.00 1422.00 L 3105.00 1447.00 L 3116.00 1458.00 L 3160.00 1524.00 L 3173.00 1551.00 L 3180.00 1561.00 L 3181.00 1567.00 L 3188.00 1576.00 L 3197.00 1594.00 L 3206.00 1621.00 L 3217.00 1642.00 L 3227.00 1671.00 L 3234.00 1684.00 L 3240.00 1706.00 L 3276.00 1781.00 L 3277.00 1788.00 L 3286.00 1806.00 L 3293.00 1815.00 L 3311.00 1852.00 L 3316.00 1858.00 L 3324.00 1878.00 L 3330.00 1885.00 L 3340.00 1906.00 L 3408.00 2008.00 L 3430.00 2035.00 L 3435.00 2044.00 L 3454.00 2063.00 L 3476.00 2093.00 L 3503.00 2120.00 L 3513.00 2135.00 L 3544.00 2166.00 L 3553.00 2172.00 L 3573.00 2195.00 L 3588.00 2205.00 L 3619.00 2236.00 L 3649.00 2258.00 L 3664.00 2273.00 L 3761.00 2339.00 L 3801.00 2363.00 L 3828.00 2376.00 L 3839.00 2384.00 L 3891.00 2410.00 L 3898.00 2411.00 L 3965.00 2443.00 L 4079.00 2481.00 L 4090.00 2481.00 L 4120.00 2490.00 L 4127.00 2490.00 L 4147.00 2498.00 L 4159.00 2498.00 L 4183.00 2506.00 L 4206.00 2506.00 L 4222.00 2511.00 L 4240.00 2511.00 L 4249.00 2515.00 L 4264.00 2515.00 L 4273.00 2519.00 L 4297.00 2519.00 L 4305.00 2523.00 L 4351.00 2523.00 L 4359.00 2527.00 L 4554.00 2527.00 L 4562.00 2523.00 L 4591.00 2523.00 L 4599.00 2519.00 L 4615.00 2519.00 L 4624.00 2515.00 L 4647.00 2515.00 L 4656.00 2511.00 L 4670.00 2511.00 L 4686.00 2506.00 L 4704.00 2506.00 L 4729.00 2498.00 L 4737.00 2498.00 L 4745.00 2494.00 L 4757.00 2494.00 L 4765.00 2490.00 L 4793.00 2485.00 L 4813.00 2477.00 L 4821.00 2477.00 L 4884.00 2456.00 L 4897.00 2449.00 L 4904.00 2448.00 L 4917.00 2441.00 L 4949.00 2430.00 L 5053.00 2380.00 L 5062.00 2373.00 L 5091.00 2359.00 L 5098.00 2353.00 L 5139.00 2331.00 L 5181.00 2303.00 L 5191.00 2294.00 L 5205.00 2287.00 L 5219.00 2274.00 L 5261.00 2244.00 L 5304.00 2206.00 L 5314.00 2200.00 L 5409.00 2105.00 L 5419.00 2090.00 L 5442.00 2067.00 L 5459.00 2042.00 L 5470.00 2031.00 L 5475.00 2022.00 L 5497.00 1995.00 L 5539.00 1932.00 L 5603.00 1817.00 L 5640.00 1730.00 L 5641.00 1719.00 L 5661.00 1663.00 L 5662.00 1651.00 L 5674.00 1619.00 L 5674.00 1612.00 L 5678.00 1603.00 L 5678.00 1592.00 L 5682.00 1583.00 L 5682.00 1573.00 L 5687.00 1556.00 L 5687.00 1539.00 L 5695.00 1514.00 L 5695.00 1502.00 L 5699.00 1494.00 L 5699.00 1482.00 L 5703.00 1474.00 L 5704.00 1463.00 L 5711.00 1446.00 L 5712.00 1435.00 L 5717.00 1420.00 L 5724.00 1407.00 L 5737.00 1368.00 L 5773.00 1300.00 L 5809.00 1250.00 L 5883.00 1176.00 L 5911.00 1156.00 L 5947.00 1136.00 L 5968.00 1121.00 L 6039.00 1092.00 L 6046.00 1092.00 L 6055.00 1088.00 L 6066.00 1087.00 L 6071.00 1084.00 L 6082.00 1083.00 L 6107.00 1075.00 L 6122.00 1075.00 L 6131.00 1071.00 L 6242.00 1071.00 L 6250.00 1075.00 L 6270.00 1075.00 L 6279.00 1079.00 L 6290.00 1079.00 L 6299.00 1083.00 L 6310.00 1084.00 L 6361.00 1101.00 L 6403.00 1120.00 L 6468.00 1159.00 L 6488.00 1174.00 L 6515.00 1201.00 L 6524.00 1206.00 L 6566.00 1252.00 L 6611.00 1319.00 L 6621.00 1340.00 L 6627.00 1347.00 L 6648.00 1393.00 L 6665.00 1444.00 L 6665.00 1452.00 L 6669.00 1460.00 L 6669.00 1467.00 L 6673.00 1476.00 L 6674.00 1492.00 L 6678.00 1502.00 L 6678.00 1524.00 L 6682.00 1533.00 L 6682.00 1591.00 L 6678.00 1600.00 L 6678.00 1626.00 L 6673.00 1642.00 L 6673.00 1661.00 L 6669.00 1669.00 L 6665.00 1693.00 L 6653.00 1725.00 L 6652.00 1736.00 L 6633.00 1777.00 L 6627.00 1795.00 L 6598.00 1848.00 L 6560.00 1903.00 L 6545.00 1918.00 L 6539.00 1928.00 L 6489.00 1978.00 L 6434.00 2016.00 L 6380.00 2045.00 L 6373.00 2046.00 L 6352.00 2057.00 L 6345.00 2058.00 L 6332.00 2065.00 L 6305.00 2074.00 L 6295.00 2074.00 L 6285.00 2078.00 L 6270.00 2079.00 L 6261.00 2083.00 L 6250.00 2083.00 L 6241.00 2087.00 L 6200.00 2087.00 L 6192.00 2091.00 L 6164.00 2091.00 L 6156.00 2087.00 L 6119.00 2087.00 L 6110.00 2083.00 L 6095.00 2082.00 L 6090.00 2079.00 L 6071.00 2078.00 L 5996.00 2053.00 L 5967.00 2038.00 L 5957.00 2035.00 L 5899.00 1998.00 L 5866.00 1973.00 L 5821.00 1928.00 L 5815.00 1918.00 L 5792.00 1895.00 L 5758.00 1840.00 L 5724.00 1772.00 L 5720.00 1759.00 L 5715.00 1754.00 L 5710.00 1754.00 L 5706.00 1758.00 L 5700.00 1779.00 L 5685.00 1808.00 L 5683.00 1816.00 L 5678.00 1822.00 L 5664.00 1850.00 L 5663.00 1857.00 L 5652.00 1879.00 L 5605.00 1960.00 L 5553.00 2038.00 L 5517.00 2086.00 L 5495.00 2109.00 L 5474.00 2138.00 L 5456.00 2157.00 L 5451.00 2170.00 L 5461.00 2187.00 L 5492.00 2227.00 L 5532.00 2267.00 L 5537.00 2276.00 L 5560.00 2299.00 L 5569.00 2304.00 L 5589.00 2324.00 L 5598.00 2329.00 L 5629.00 2356.00 L 5690.00 2398.00 L 5729.00 2419.00 L 5738.00 2426.00 L 5780.00 2447.00 L 5787.00 2448.00 L 5811.00 2460.00 L 5820.00 2462.00 L 5841.00 2473.00 L 5889.00 2489.00 L 5900.00 2490.00 L 5932.00 2502.00 L 5940.00 2502.00 L 5981.00 2515.00 L 5996.00 2515.00 L 6005.00 2519.00 L 6021.00 2519.00 L 6029.00 2523.00 L 6053.00 2523.00 L 6062.00 2527.00 L 6094.00 2527.00 L 6103.00 2531.00 L 6137.00 2531.00 L 6153.00 2536.00 L 6219.00 2536.00 L 6235.00 2531.00 L 6278.00 2531.00 L 6287.00 2527.00 L 6307.00 2527.00 L 6315.00 2523.00 L 6339.00 2523.00 L 6364.00 2515.00 L 6375.00 2515.00 L 6420.00 2502.00 L 6428.00 2502.00 L 6436.00 2498.00 L 6444.00 2498.00 L 6464.00 2490.00 L 6475.00 2489.00 L 6499.00 2481.00 L 6512.00 2474.00 L 6519.00 2473.00 L 6532.00 2466.00 L 6548.00 2461.00 L 6626.00 2422.00 L 6669.00 2394.00 L 6678.00 2394.00 L 6682.00 2399.00 L 6682.00 2484.00 L 6690.00 2503.00 L 6702.00 2515.00 L 6710.00 2519.00 L 7090.00 2519.00 L 7107.00 2510.00 L 7118.00 2491.00 L 7118.00 734.00 L 7110.00 718.00 L 7102.00 711.00 L 7091.00 706.00 L 6708.00 706.00 L 6695.00 713.00 L 6689.00 719.00 L 6683.00 730.00 L 6681.00 766.00 L 6678.00 768.00 L 6668.00 768.00 L 6587.00 727.00 L 6580.00 726.00 L 6539.00 707.00 L 6453.00 677.00 L 6442.00 676.00 L 6406.00 664.00 L 6394.00 664.00 L 6386.00 660.00 L 6374.00 660.00 L 6365.00 656.00 L 6355.00 656.00 L 6339.00 651.00 L 6326.00 651.00 L 6316.00 647.00 L 6280.00 647.00 L 6272.00 643.00 L 6235.00 643.00 L 6227.00 639.00 L 6138.00 639.00 L 6129.00 643.00 L 6109.00 643.00 L 6101.00 647.00 L 6064.00 647.00 L 6055.00 651.00 L 6032.00 652.00 L 6007.00 660.00 L 5995.00 660.00 L 5987.00 664.00 L 5975.00 664.00 L 5967.00 668.00 L 5955.00 668.00 L 5946.00 672.00 L 5935.00 673.00 L 5903.00 685.00 L 5895.00 685.00 L 5882.00 692.00 L 5816.00 714.00 L 5769.00 738.00 L 5753.00 743.00 L 5709.00 765.00 L 5695.00 775.00 L 5681.00 781.00 L 5668.00 792.00 L 5654.00 799.00 L 5633.00 814.00 L 5619.00 821.00 L 5605.00 834.00 L 5579.00 852.00 L 5568.00 863.00 L 5559.00 868.00 L 5548.00 879.00 L 5539.00 884.00 L 5458.00 965.00 L 5452.00 975.00 L 5438.00 989.00 L 5420.00 1015.00 L 5409.00 1026.00 L 5363.00 1095.00 L 5336.00 1142.00 L 5329.00 1161.00 L 5318.00 1177.00 L 5317.00 1184.00 L 5305.00 1208.00 L 5304.00 1215.00 L 5292.00 1238.00 L 5259.00 1342.00 L 5259.00 1349.00 L 5246.00 1394.00 L 5246.00 1405.00 L 5238.00 1430.00 L 5238.00 1441.00 L 5234.00 1450.00 L 5233.00 1461.00 L 5217.00 1505.00 L 5217.00 1513.00 L 5212.00 1528.00 L 5205.00 1541.00 L 5200.00 1560.00 L 5193.00 1573.00 L 5183.00 1603.00 L 5133.00 1698.00 L 5091.00 1761.00 L 5075.00 1782.00 L 5061.00 1796.00 L 5056.00 1805.00 L 4977.00 1884.00 L 4921.00 1927.00 L 4845.00 1976.00 L 4779.00 2011.00 L 4772.00 2012.00 L 4729.00 2032.00 L 4678.00 2049.00 L 4667.00 2050.00 L 4630.00 2062.00 L 4618.00 2062.00 L 4610.00 2066.00 L 4602.00 2066.00 L 4594.00 2070.00 L 4582.00 2070.00 L 4574.00 2074.00 L 4555.00 2074.00 L 4539.00 2079.00 L 4496.00 2079.00 L 4487.00 2083.00 L 4401.00 2083.00 L 4392.00 2079.00 L 4344.00 2079.00 L 4328.00 2074.00 L 4310.00 2074.00 L 4286.00 2066.00 L 4270.00 2066.00 L 4261.00 2062.00 L 4234.00 2057.00 L 4217.00 2050.00 L 4190.00 2045.00 L 4151.00 2032.00 L 4128.00 2022.00 L 4122.00 2017.00 L 4092.00 2007.00 L 4015.00 1966.00 L 3925.00 1902.00 L 3901.00 1878.00 L 3892.00 1873.00 L 3884.00 1861.00 L 3863.00 1844.00 L 3823.00 1800.00 L 3805.00 1774.00 L 3792.00 1760.00 L 3742.00 1685.00 L 3684.00 1574.00 L 3678.00 1556.00 L 3642.00 1485.00 L 3641.00 1478.00 L 3577.00 1346.00 L 3554.00 1309.00 L 3540.00 1280.00 L 3524.00 1256.00 L 3514.00 1245.00 L 3507.00 1231.00 L 3496.00 1218.00 L 3475.00 1185.00 L 3456.00 1166.00 L 3450.00 1156.00 L 3423.00 1129.00 L 3417.00 1119.00 L 3353.00 1055.00 L 3344.00 1050.00 L 3329.00 1035.00 L 3303.00 1017.00 L 3273.00 992.00 L 3247.00 977.00 L 3214.00 954.00 L 3131.00 910.00 L 3115.00 905.00 L 3074.00 886.00 L 3055.00 881.00 L 3042.00 874.00 L 3028.00 872.00 L 2996.00 860.00 L 2988.00 860.00 L 2952.00 848.00 L 2937.00 847.00 L 2912.00 839.00 L 2896.00 839.00 L 2887.00 835.00 L 2872.00 835.00 L 2863.00 831.00 L 2835.00 831.00 L 2826.00 827.00 L 2799.00 827.00 L 2789.00 823.00 L 2689.00 823.00 L 2680.00 827.00 L 2652.00 827.00 L 2644.00 831.00 L 2619.00 831.00 L 2611.00 835.00 L 2591.00 835.00 L 2582.00 839.00 L 2567.00 839.00 L 2558.00 843.00 L 2543.00 844.00 L 2510.00 856.00 L 2494.00 856.00 L 2491.00 854.00 L 2490.00 843.00 L 2507.00 813.00 L 2542.00 765.00 L 2557.00 750.00 L 2562.00 741.00 L 2652.00 651.00 L 2677.00 634.00 L 2688.00 623.00 L 2740.00 588.00 L 2777.00 570.00 L 2786.00 563.00 L 2801.00 558.00 L 2823.00 546.00 L 2897.00 520.00 L 2905.00 520.00 L 2925.00 512.00 L 2933.00 512.00 L 2941.00 508.00 L 2951.00 508.00 L 2967.00 503.00 L 2977.00 503.00 L 2986.00 499.00 L 3006.00 499.00 L 3014.00 495.00 L 3047.00 495.00 L 3062.00 483.00 L 3066.00 474.00 L 3066.00 67.00 L 3061.00 55.00 L 3048.00 47.00 L 3032.00 46.00 L 3016.00 51.00 L 2981.00 51.00 L 2972.00 55.00 L 2949.00 55.00 L 2940.00 59.00 L 2920.00 59.00 L 2912.00 63.00 L 2891.00 63.00 L 2883.00 67.00 L 2863.00 67.00 L 2854.00 71.00 L 2839.00 72.00 L 2814.00 80.00 L 2803.00 80.00 L 2782.00 88.00 L 2771.00 88.00 L 2692.00 114.00 L 2637.00 138.00 L 2630.00 139.00 L 2585.00 162.00 L 2559.00 172.00 L 2517.00 198.00 L 2490.00 211.00 L 2463.00 229.00 L 2456.00 236.00 L 2439.00 245.00 L 2412.00 267.00 L 2387.00 284.00 L 2359.00 312.00 L 2350.00 317.00 L 2262.00 405.00 L 2256.00 415.00 L 2237.00 434.00 L 2232.00 443.00 L 2213.00 462.00 L 2207.00 472.00 L 2177.00 507.00 L 2113.00 601.00 L 2054.00 702.00 L 2045.00 725.00 L 2039.00 733.00 L 2036.00 744.00 L 2017.00 781.00 L 2016.00 788.00 L 1996.00 831.00 L 1982.00 873.00 L 1975.00 886.00 L 1954.00 949.00 L 1953.00 960.00 Z M 7654.00 42.00 L 7645.00 46.00 L 7634.00 47.00 L 7621.00 54.00 L 7594.00 63.00 L 7560.00 82.00 L 7524.00 109.00 L 7487.00 150.00 L 7471.00 176.00 L 7446.00 231.00 L 7445.00 242.00 L 7441.00 251.00 L 7441.00 262.00 L 7437.00 271.00 L 7437.00 342.00 L 7441.00 350.00 L 7441.00 361.00 L 7445.00 370.00 L 7447.00 384.00 L 7462.00 417.00 L 7463.00 424.00 L 7471.00 435.00 L 7480.00 454.00 L 7493.00 468.00 L 7504.00 484.00 L 7529.00 509.00 L 7544.00 519.00 L 7555.00 530.00 L 7580.00 545.00 L 7596.00 550.00 L 7609.00 557.00 L 7624.00 562.00 L 7632.00 562.00 L 7640.00 566.00 L 7648.00 566.00 L 7656.00 570.00 L 7734.00 570.00 L 7742.00 566.00 L 7754.00 566.00 L 7781.00 557.00 L 7837.00 531.00 L 7851.00 518.00 L 7860.00 513.00 L 7887.00 486.00 L 7892.00 477.00 L 7903.00 466.00 L 7935.00 412.00 L 7948.00 373.00 L 7948.00 363.00 L 7953.00 347.00 L 7953.00 329.00 L 7955.00 325.00 L 7953.00 317.00 L 7953.00 269.00 L 7949.00 259.00 L 7948.00 244.00 L 7935.00 205.00 L 7913.00 161.00 L 7890.00 129.00 L 7857.00 96.00 L 7827.00 76.00 L 7785.00 55.00 L 7764.00 47.00 L 7749.00 46.00 L 7740.00 42.00 Z M 5586.00 745.00 L 5559.00 700.00 L 5553.00 686.00 L 5516.00 630.00 L 5488.00 582.00 L 5466.00 555.00 L 5461.00 546.00 L 5450.00 535.00 L 5445.00 526.00 L 5434.00 515.00 L 5429.00 506.00 L 5418.00 495.00 L 5412.00 485.00 L 5390.00 463.00 L 5380.00 448.00 L 5310.00 378.00 L 5295.00 368.00 L 5240.00 317.00 L 5231.00 312.00 L 5156.00 254.00 L 5094.00 214.00 L 4966.00 148.00 L 4922.00 133.00 L 4881.00 114.00 L 4870.00 113.00 L 4771.00 80.00 L 4759.00 80.00 L 4750.00 76.00 L 4739.00 75.00 L 4729.00 71.00 L 4719.00 71.00 L 4694.00 63.00 L 4678.00 63.00 L 4670.00 59.00 L 4654.00 59.00 L 4646.00 55.00 L 4630.00 55.00 L 4621.00 51.00 L 4600.00 51.00 L 4583.00 46.00 L 4548.00 46.00 L 4539.00 42.00 L 4370.00 42.00 L 4361.00 46.00 L 4334.00 46.00 L 4318.00 51.00 L 4300.00 51.00 L 4291.00 55.00 L 4276.00 55.00 L 4267.00 59.00 L 4251.00 59.00 L 4243.00 63.00 L 4227.00 63.00 L 4218.00 67.00 L 4211.00 67.00 L 4202.00 71.00 L 4187.00 72.00 L 4162.00 80.00 L 4151.00 80.00 L 4102.00 96.00 L 4091.00 97.00 L 4055.00 109.00 L 4039.00 117.00 L 4008.00 126.00 L 3995.00 133.00 L 3967.00 142.00 L 3945.00 154.00 L 3938.00 155.00 L 3925.00 163.00 L 3913.00 167.00 L 3869.00 189.00 L 3855.00 199.00 L 3823.00 214.00 L 3743.00 267.00 L 3726.00 276.00 L 3715.00 287.00 L 3669.00 321.00 L 3654.00 336.00 L 3645.00 341.00 L 3622.00 363.00 L 3612.00 369.00 L 3537.00 444.00 L 3507.00 483.00 L 3484.00 506.00 L 3479.00 515.00 L 3433.00 574.00 L 3387.00 645.00 L 3366.00 684.00 L 3356.00 698.00 L 3338.00 736.00 L 3329.00 749.00 L 3326.00 760.00 L 3314.00 783.00 L 3313.00 790.00 L 3285.00 849.00 L 3284.00 856.00 L 3273.00 881.00 L 3272.00 891.00 L 3274.00 897.00 L 3281.00 905.00 L 3318.00 930.00 L 3329.00 941.00 L 3363.00 966.00 L 3474.00 1077.00 L 3479.00 1086.00 L 3538.00 1158.00 L 3547.00 1175.00 L 3560.00 1189.00 L 3625.00 1286.00 L 3631.00 1291.00 L 3637.00 1291.00 L 3642.00 1288.00 L 3646.00 1280.00 L 3646.00 1256.00 L 3650.00 1248.00 L 3650.00 1232.00 L 3654.00 1223.00 L 3654.00 1204.00 L 3667.00 1163.00 L 3667.00 1156.00 L 3671.00 1147.00 L 3671.00 1139.00 L 3675.00 1131.00 L 3675.00 1123.00 L 3679.00 1115.00 L 3680.00 1104.00 L 3701.00 1041.00 L 3708.00 1028.00 L 3713.00 1009.00 L 3741.00 950.00 L 3742.00 943.00 L 3753.00 926.00 L 3755.00 918.00 L 3771.00 889.00 L 3819.00 815.00 L 3826.00 808.00 L 3843.00 783.00 L 3858.00 768.00 L 3864.00 758.00 L 3930.00 692.00 L 3939.00 687.00 L 3963.00 663.00 L 3984.00 650.00 L 3991.00 643.00 L 4034.00 613.00 L 4078.00 589.00 L 4085.00 583.00 L 4109.00 571.00 L 4116.00 570.00 L 4126.00 563.00 L 4134.00 561.00 L 4155.00 550.00 L 4174.00 545.00 L 4210.00 529.00 L 4226.00 524.00 L 4233.00 524.00 L 4265.00 512.00 L 4276.00 512.00 L 4297.00 504.00 L 4308.00 503.00 L 4317.00 499.00 L 4328.00 499.00 L 4337.00 495.00 L 4353.00 495.00 L 4361.00 491.00 L 4394.00 491.00 L 4402.00 487.00 L 4527.00 487.00 L 4536.00 491.00 L 4564.00 491.00 L 4573.00 495.00 L 4588.00 495.00 L 4597.00 499.00 L 4624.00 504.00 L 4641.00 511.00 L 4652.00 512.00 L 4680.00 524.00 L 4691.00 525.00 L 4704.00 532.00 L 4726.00 538.00 L 4764.00 558.00 L 4780.00 563.00 L 4798.00 572.00 L 4812.00 582.00 L 4826.00 588.00 L 4865.00 612.00 L 4891.00 633.00 L 4929.00 659.00 L 4962.00 687.00 L 5033.00 758.00 L 5082.00 820.00 L 5132.00 899.00 L 5170.00 974.00 L 5171.00 981.00 L 5183.00 1004.00 L 5197.00 1046.00 L 5204.00 1059.00 L 5217.00 1098.00 L 5217.00 1106.00 L 5225.00 1126.00 L 5226.00 1145.00 L 5231.00 1159.00 L 5235.00 1162.00 L 5243.00 1162.00 L 5247.00 1159.00 L 5274.00 1109.00 L 5331.00 1021.00 L 5336.00 1010.00 L 5349.00 996.00 L 5375.00 958.00 L 5432.00 897.00 L 5443.00 881.00 L 5484.00 840.00 L 5493.00 835.00 L 5545.00 788.00 L 5554.00 783.00 L 5582.00 759.00 L 5586.00 752.00 Z" fill="url(#logoGrad)" fill-rule="evenodd"/>
  <rect x="0" y="0" width="8000" height="2583" fill="url(#softLight)"/>
  <rect x="145" y="65" width="1480" height="410" rx="24" fill="#8F8FD3" opacity="0.18"/>
  <polygon points="1470,70 1640,70 1260,1000 690,1150" fill="#8E8AD5" opacity="0.23"/>
  <rect x="900" y="820" width="500" height="1660" fill="#6E67C5" opacity="0.15"/>
  <rect x="900" y="1655" width="850" height="860" fill="#786FC8" opacity="0.16"/>
  <rect x="1850" y="1620" width="950" height="900" fill="#5EA1CB" opacity="0.20"/>
  <ellipse cx="2700" cy="1645" rx="880" ry="830" fill="#4F95C9" opacity="0.18"/>
  <rect x="2700" y="810" width="330" height="1690" fill="#DDEEF7" opacity="0.30"/>
  <polygon points="2460,860 3040,760 3460,2150 3080,2450" fill="#6FA7CC" opacity="0.14"/>
  <ellipse cx="6150" cy="1540" rx="880" ry="930" fill="#5FC5C7" opacity="0.13"/>
  <rect x="6660" y="700" width="430" height="1780" fill="#8AD2C7" opacity="0.24"/>
</g>
</svg>