<?xml version="1.0" encoding="UTF-8"?>
<svg xmlns="http://www.w3.org/2000/svg" width="2400" height="520" viewBox="0 0 2400 520" role="img" aria-labelledby="title desc">
  <title id="title">ThreesixtyAI logo proposal</title>
  <desc id="desc">Rounded outlined wordmark in the 360ai lavender blue to mint teal gradient style.</desc>
  <defs>
    <linearGradient id="threesixtyGradient" x1="80" y1="0" x2="2320" y2="0" gradientUnits="userSpaceOnUse">
      <stop offset="0" stop-color="#B7B8E0"/>
      <stop offset="0.18" stop-color="#AAA8DA"/>
      <stop offset="0.36" stop-color="#8CB7D9"/>
      <stop offset="0.56" stop-color="#9EC5D7"/>
      <stop offset="0.76" stop-color="#7CCBC8"/>
      <stop offset="1" stop-color="#A5D5CC"/>
    </linearGradient>
    <linearGradient id="softHighlight" x1="0" y1="95" x2="0" y2="360" gradientUnits="userSpaceOnUse">
      <stop offset="0" stop-color="#FFFFFF" stop-opacity="0.34"/>
      <stop offset="0.52" stop-color="#FFFFFF" stop-opacity="0.10"/>
      <stop offset="1" stop-color="#FFFFFF" stop-opacity="0"/>
    </linearGradient>
    <filter id="softShadow" x="-5%" y="-20%" width="110%" height="150%">
      <feDropShadow dx="0" dy="10" stdDeviation="10" flood-color="#7397A8" flood-opacity="0.12"/>
    </filter>
    <mask id="wordMask" maskUnits="userSpaceOnUse">
      <rect width="2400" height="520" fill="black"/>
      <path fill="white" fill-rule="evenodd" d="M 233.289 135.128 L 188.043 135.128 L 188.043 283.854 C 188.043 292.419 186.134 298.773 182.317 302.916 C 178.5 307.058 173.566 309.13 167.515 309.13 C 161.37 309.13 156.366 307.035 152.502 302.846 C 148.639 298.656 146.707 292.326 146.707 283.854 L 146.707 135.128 L 101.461 135.128 C 94.385 135.128 89.125 133.569 85.681 130.45 C 82.236 127.331 80.514 123.211 80.514 118.091 C 80.514 112.784 82.306 108.595 85.89 105.523 C 89.474 102.45 94.665 100.914 101.461 100.914 L 233.289 100.914 C 240.458 100.914 245.788 102.497 249.279 105.662 C 252.77 108.828 254.516 112.97 254.516 118.091 C 254.516 123.211 252.747 127.331 249.209 130.45 C 245.671 133.569 240.365 135.128 233.289 135.128 Z M 313.727 120.605 L 313.727 177.162 C 318.568 171.576 323.293 167.154 327.901 163.896 C 332.509 160.637 337.606 158.193 343.192 156.564 C 348.778 154.935 354.783 154.12 361.207 154.12 C 370.889 154.12 379.478 156.168 386.972 160.265 C 394.467 164.361 400.355 170.319 404.638 178.14 C 407.338 182.702 409.153 187.799 410.084 193.431 C 411.015 199.064 411.481 205.557 411.481 212.912 L 411.481 285.948 C 411.481 293.582 409.735 299.355 406.244 303.265 C 402.752 307.175 398.121 309.13 392.349 309.13 C 379.78 309.13 373.496 301.403 373.496 285.948 L 373.496 221.57 C 373.496 209.374 371.681 199.995 368.05 193.431 C 364.419 186.868 357.53 183.586 347.382 183.586 C 340.586 183.586 334.464 185.518 329.018 189.381 C 323.572 193.245 319.499 198.528 316.799 205.231 C 314.751 210.911 313.727 221.012 313.727 235.535 L 313.727 285.948 C 313.727 293.489 312.028 299.238 308.629 303.195 C 305.231 307.152 300.507 309.13 294.455 309.13 C 281.887 309.13 275.603 301.403 275.603 285.948 L 275.603 120.605 C 275.603 112.877 277.255 107.082 280.56 103.218 C 283.865 99.355 288.497 97.423 294.455 97.423 C 300.507 97.423 305.231 99.378 308.629 103.288 C 312.028 107.198 313.727 112.97 313.727 120.605 Z M 487.03 254.108 L 487.03 285.948 C 487.03 293.675 485.215 299.471 481.584 303.335 C 477.953 307.198 473.345 309.13 467.759 309.13 C 462.266 309.13 457.751 307.175 454.213 303.265 C 450.675 299.355 448.906 293.582 448.906 285.948 L 448.906 179.815 C 448.906 162.685 455.097 154.12 467.48 154.12 C 473.81 154.12 478.372 156.122 481.165 160.125 C 483.958 164.128 485.494 170.04 485.773 177.86 C 490.335 170.04 495.014 164.128 499.808 160.125 C 504.603 156.122 511.003 154.12 519.01 154.12 C 527.016 154.12 534.79 156.122 542.331 160.125 C 549.872 164.128 553.643 169.435 553.643 176.045 C 553.643 180.7 552.037 184.54 548.825 187.566 C 545.613 190.592 542.145 192.105 538.421 192.105 C 537.024 192.105 533.65 191.243 528.296 189.521 C 522.943 187.799 518.218 186.938 514.122 186.938 C 508.536 186.938 503.974 188.404 500.437 191.336 C 496.899 194.269 494.152 198.621 492.197 204.394 C 490.242 210.166 488.892 217.032 488.148 224.992 C 487.403 232.952 487.03 242.657 487.03 254.108 Z M 680.862 240.981 L 606.29 240.981 C 606.383 249.64 608.129 257.274 611.527 263.884 C 614.925 270.494 619.44 275.475 625.073 278.826 C 630.705 282.178 636.92 283.854 643.716 283.854 C 648.278 283.854 652.444 283.318 656.214 282.248 C 659.985 281.177 663.639 279.501 667.177 277.22 C 670.715 274.939 673.973 272.495 676.952 269.889 C 679.931 267.282 683.795 263.744 688.543 259.275 C 690.498 257.6 693.291 256.762 696.922 256.762 C 700.832 256.762 703.997 257.832 706.418 259.974 C 708.839 262.115 710.049 265.141 710.049 269.051 C 710.049 272.495 708.699 276.522 705.999 281.13 C 703.299 285.739 699.226 290.161 693.78 294.397 C 688.334 298.633 681.491 302.148 673.252 304.94 C 665.012 307.733 655.539 309.13 644.833 309.13 C 620.348 309.13 601.309 302.147 587.717 288.183 C 574.124 274.218 567.328 255.272 567.328 231.346 C 567.328 220.081 569.004 209.63 572.356 199.995 C 575.707 190.359 580.595 182.096 587.019 175.207 C 593.442 168.318 601.356 163.034 610.759 159.357 C 620.162 155.68 630.589 153.841 642.04 153.841 C 656.936 153.841 669.714 156.983 680.374 163.267 C 691.033 169.551 699.017 177.674 704.323 187.636 C 709.63 197.597 712.283 207.745 712.283 218.079 C 712.283 227.668 709.537 233.883 704.044 236.722 C 698.551 239.562 690.824 240.981 680.862 240.981 Z M 606.29 219.336 L 675.416 219.336 C 674.485 206.302 670.971 196.55 664.873 190.08 C 658.775 183.609 650.745 180.374 640.783 180.374 C 631.287 180.374 623.49 183.656 617.392 190.219 C 611.294 196.783 607.593 206.488 606.29 219.336 Z M 850.815 240.981 L 776.242 240.981 C 776.335 249.64 778.081 257.274 781.479 263.884 C 784.877 270.494 789.392 275.475 795.025 278.826 C 800.657 282.178 806.872 283.854 813.668 283.854 C 818.23 283.854 822.396 283.318 826.167 282.248 C 829.937 281.177 833.591 279.501 837.129 277.22 C 840.667 274.939 843.925 272.495 846.904 269.889 C 849.883 267.282 853.747 263.744 858.495 259.275 C 860.45 257.6 863.243 256.762 866.874 256.762 C 870.784 256.762 873.95 257.832 876.37 259.974 C 878.791 262.115 880.001 265.141 880.001 269.051 C 880.001 272.495 878.651 276.522 875.951 281.13 C 873.251 285.739 869.178 290.161 863.732 294.397 C 858.286 298.633 851.443 302.148 843.204 304.94 C 834.964 307.733 825.492 309.13 814.785 309.13 C 790.3 309.13 771.261 302.147 757.669 288.183 C 744.077 274.218 737.28 255.272 737.28 231.346 C 737.28 220.081 738.956 209.63 742.308 199.995 C 745.659 190.359 750.547 182.096 756.971 175.207 C 763.395 168.318 771.308 163.034 780.711 159.357 C 790.114 155.68 800.541 153.841 811.992 153.841 C 826.888 153.841 839.666 156.983 850.326 163.267 C 860.986 169.551 868.969 177.674 874.275 187.636 C 879.582 197.597 882.235 207.745 882.235 218.079 C 882.235 227.668 879.489 233.883 873.996 236.722 C 868.503 239.562 860.776 240.981 850.815 240.981 Z M 776.242 219.336 L 845.368 219.336 C 844.437 206.302 840.923 196.55 834.825 190.08 C 828.727 183.609 820.697 180.374 810.735 180.374 C 801.239 180.374 793.442 183.656 787.344 190.219 C 781.246 196.783 777.546 206.488 776.242 219.336 Z M 1037.105 259.275 C 1037.105 269.796 1034.545 278.803 1029.425 286.297 C 1024.304 293.792 1016.74 299.471 1006.732 303.335 C 996.724 307.198 984.551 309.13 970.214 309.13 C 956.528 309.13 944.798 307.035 935.023 302.846 C 925.247 298.656 918.032 293.419 913.377 287.135 C 908.722 280.851 906.395 274.544 906.395 268.213 C 906.395 264.023 907.884 260.439 910.863 257.46 C 913.842 254.481 917.613 252.991 922.175 252.991 C 926.178 252.991 929.25 253.969 931.392 255.924 C 933.533 257.879 935.581 260.625 937.536 264.163 C 941.446 270.959 946.125 276.033 951.571 279.385 C 957.017 282.736 964.442 284.412 973.845 284.412 C 981.479 284.412 987.74 282.713 992.627 279.315 C 997.515 275.917 999.959 272.03 999.959 267.654 C 999.959 260.951 997.422 256.064 992.348 252.991 C 987.274 249.919 978.919 246.986 967.281 244.193 C 954.154 240.935 943.471 237.514 935.232 233.929 C 926.993 230.345 920.406 225.62 915.472 219.755 C 910.537 213.89 908.07 206.675 908.07 198.109 C 908.07 190.475 910.351 183.26 914.913 176.464 C 919.475 169.668 926.201 164.245 935.092 160.195 C 943.983 156.145 954.713 154.12 967.281 154.12 C 977.15 154.12 986.017 155.144 993.884 157.192 C 1001.751 159.241 1008.315 161.987 1013.575 165.432 C 1018.835 168.876 1022.838 172.693 1025.584 176.883 C 1028.331 181.072 1029.704 185.169 1029.704 189.172 C 1029.704 193.548 1028.238 197.132 1025.305 199.925 C 1022.373 202.718 1018.206 204.114 1012.807 204.114 C 1008.896 204.114 1005.568 202.997 1002.822 200.763 C 1000.075 198.528 996.933 195.177 993.396 190.708 C 990.509 186.984 987.111 184.005 983.201 181.771 C 979.291 179.536 973.984 178.419 967.281 178.419 C 960.392 178.419 954.666 179.885 950.105 182.818 C 945.543 185.751 943.262 189.405 943.262 193.78 C 943.262 197.784 944.938 201.065 948.289 203.626 C 951.641 206.186 956.156 208.304 961.835 209.98 C 967.514 211.655 975.334 213.703 985.296 216.124 C 997.119 219.01 1006.778 222.455 1014.273 226.458 C 1021.767 230.461 1027.446 235.186 1031.31 240.632 C 1035.174 246.079 1037.105 252.293 1037.105 259.275 Z M 1107.488 175.766 L 1107.488 285.948 C 1107.488 293.582 1105.673 299.355 1102.042 303.265 C 1098.411 307.175 1093.803 309.13 1088.217 309.13 C 1082.631 309.13 1078.092 307.128 1074.601 303.125 C 1071.11 299.122 1069.364 293.396 1069.364 285.948 L 1069.364 176.883 C 1069.364 169.342 1071.11 163.663 1074.601 159.846 C 1078.092 156.029 1082.631 154.12 1088.217 154.12 C 1093.803 154.12 1098.411 156.029 1102.042 159.846 C 1105.673 163.663 1107.488 168.969 1107.488 175.766 Z M 1088.636 136.385 C 1083.329 136.385 1078.79 134.756 1075.02 131.497 C 1071.25 128.239 1069.364 123.63 1069.364 117.672 C 1069.364 112.272 1071.296 107.827 1075.16 104.335 C 1079.023 100.844 1083.515 99.099 1088.636 99.099 C 1093.57 99.099 1097.946 100.681 1101.763 103.847 C 1105.58 107.012 1107.488 111.621 1107.488 117.672 C 1107.488 123.537 1105.626 128.122 1101.902 131.427 C 1098.178 134.732 1093.756 136.385 1088.636 136.385 Z M 1229.541 293.35 L 1201.891 252.712 L 1173.542 293.35 C 1169.446 299.029 1165.978 303.078 1163.138 305.499 C 1160.299 307.92 1156.691 309.13 1152.315 309.13 C 1147.474 309.13 1143.355 307.617 1139.957 304.591 C 1136.558 301.566 1134.859 298.098 1134.859 294.188 C 1134.859 290.184 1137.466 284.459 1142.68 277.011 L 1177.173 227.575 L 1146.59 186.379 C 1141.283 179.583 1138.63 173.671 1138.63 168.644 C 1138.63 164.733 1140.213 161.335 1143.378 158.449 C 1146.543 155.563 1150.686 154.12 1155.807 154.12 C 1160.275 154.12 1163.976 155.377 1166.909 157.891 C 1169.841 160.404 1173.263 164.361 1177.173 169.761 L 1201.891 203.556 L 1225.91 169.761 C 1229.913 164.175 1233.381 160.172 1236.314 157.751 C 1239.246 155.33 1242.901 154.12 1247.276 154.12 C 1252.304 154.12 1256.47 155.54 1259.775 158.379 C 1263.08 161.219 1264.732 164.64 1264.732 168.644 C 1264.732 171.53 1264.057 174.299 1262.708 176.953 C 1261.358 179.606 1259.286 182.748 1256.493 186.379 L 1225.91 227.575 L 1260.403 277.011 C 1265.803 284.738 1268.503 290.557 1268.503 294.467 C 1268.503 298.47 1266.827 301.915 1263.476 304.801 C 1260.124 307.687 1255.981 309.13 1251.047 309.13 C 1246.671 309.13 1242.97 307.873 1239.945 305.359 C 1236.919 302.846 1233.451 298.842 1229.541 293.35 Z M 1297.969 157.472 L 1302.158 157.472 L 1302.158 134.569 C 1302.158 128.425 1302.321 123.607 1302.647 120.116 C 1302.973 116.625 1303.88 113.622 1305.37 111.108 C 1306.86 108.502 1309.001 106.384 1311.794 104.754 C 1314.587 103.125 1317.706 102.311 1321.15 102.311 C 1325.991 102.311 1330.367 104.126 1334.277 107.757 C 1336.884 110.177 1338.536 113.133 1339.235 116.625 C 1339.933 120.116 1340.282 125.073 1340.282 131.497 L 1340.282 157.472 L 1354.247 157.472 C 1359.647 157.472 1363.766 158.752 1366.606 161.312 C 1369.445 163.872 1370.865 167.154 1370.865 171.157 C 1370.865 176.278 1368.84 179.862 1364.791 181.91 C 1360.741 183.958 1354.945 184.982 1347.404 184.982 L 1340.282 184.982 L 1340.282 255.086 C 1340.282 261.044 1340.492 265.629 1340.911 268.841 C 1341.329 272.053 1342.447 274.66 1344.262 276.662 C 1346.078 278.663 1349.033 279.664 1353.13 279.664 C 1355.364 279.664 1358.39 279.268 1362.207 278.477 C 1366.024 277.686 1369.003 277.29 1371.145 277.29 C 1374.217 277.29 1376.986 278.524 1379.454 280.991 C 1381.921 283.458 1383.154 286.507 1383.154 290.138 C 1383.154 296.282 1379.803 300.984 1373.1 304.242 C 1366.396 307.501 1356.761 309.13 1344.192 309.13 C 1332.276 309.13 1323.245 307.128 1317.101 303.125 C 1310.956 299.122 1306.929 293.582 1305.021 286.507 C 1303.112 279.431 1302.158 269.982 1302.158 258.158 L 1302.158 184.982 L 1297.131 184.982 C 1291.638 184.982 1287.448 183.679 1284.563 181.072 C 1281.676 178.466 1280.233 175.161 1280.233 171.157 C 1280.233 167.154 1281.746 163.872 1284.772 161.312 C 1287.798 158.752 1292.197 157.472 1297.969 157.472 Z M 1432.311 313.878 L 1435.802 305.359 L 1388.88 187.217 C 1385.994 180.421 1384.551 175.486 1384.551 172.414 C 1384.551 169.156 1385.389 166.13 1387.064 163.337 C 1388.74 160.544 1391.044 158.31 1393.977 156.634 C 1396.91 154.958 1399.959 154.12 1403.124 154.12 C 1408.617 154.12 1412.76 155.866 1415.553 159.357 C 1418.346 162.848 1420.813 167.852 1422.954 174.369 L 1455.213 268.213 L 1485.796 180.933 C 1488.216 173.857 1490.404 168.318 1492.359 164.315 C 1494.314 160.311 1496.386 157.611 1498.574 156.215 C 1500.761 154.818 1503.857 154.12 1507.86 154.12 C 1510.746 154.12 1513.516 154.888 1516.169 156.424 C 1518.823 157.96 1520.871 160.032 1522.314 162.639 C 1523.757 165.246 1524.479 167.992 1524.479 170.878 C 1524.106 172.647 1523.501 175.161 1522.663 178.419 C 1521.825 181.677 1520.801 184.982 1519.591 188.334 L 1469.876 318.486 C 1465.593 329.938 1461.404 338.922 1457.308 345.439 C 1453.211 351.955 1447.788 356.96 1441.039 360.451 C 1434.289 363.942 1425.188 365.688 1413.737 365.688 C 1402.565 365.688 1394.187 364.477 1388.601 362.057 C 1383.015 359.636 1380.222 355.214 1380.222 348.79 C 1380.222 344.414 1381.548 341.04 1384.202 338.666 C 1386.855 336.292 1390.788 335.105 1396.002 335.105 C 1398.05 335.105 1400.052 335.384 1402.007 335.942 C 1404.427 336.501 1406.522 336.78 1408.291 336.78 C 1412.667 336.78 1416.111 336.129 1418.625 334.825 C 1421.139 333.522 1423.396 331.264 1425.398 328.052 C 1427.4 324.84 1429.704 320.116 1432.311 313.878 Z M 1741.334 282.457 L 1731.559 256.762 L 1648.328 256.762 L 1638.553 283.016 C 1634.736 293.257 1631.477 300.169 1628.777 303.753 C 1626.077 307.338 1621.655 309.13 1615.511 309.13 C 1610.297 309.13 1605.689 307.221 1601.686 303.404 C 1597.682 299.587 1595.681 295.258 1595.681 290.417 C 1595.681 287.624 1596.146 284.738 1597.077 281.759 C 1598.008 278.78 1599.544 274.637 1601.686 269.33 L 1654.054 136.385 C 1655.543 132.568 1657.335 127.983 1659.43 122.629 C 1661.525 117.276 1663.759 112.831 1666.133 109.293 C 1668.507 105.755 1671.626 102.892 1675.49 100.705 C 1679.353 98.517 1684.125 97.423 1689.804 97.423 C 1695.576 97.423 1700.394 98.517 1704.257 100.705 C 1708.121 102.892 1711.24 105.709 1713.614 109.153 C 1715.988 112.598 1717.989 116.299 1719.619 120.255 C 1721.248 124.212 1723.319 129.496 1725.833 136.106 L 1779.318 268.213 C 1783.508 278.268 1785.603 285.576 1785.603 290.138 C 1785.603 294.886 1783.624 299.238 1779.667 303.195 C 1775.711 307.152 1770.939 309.13 1765.354 309.13 C 1762.095 309.13 1759.302 308.548 1756.975 307.384 C 1754.647 306.221 1752.692 304.638 1751.109 302.636 C 1749.527 300.635 1747.828 297.562 1746.012 293.419 C 1744.197 289.277 1742.637 285.622 1741.334 282.457 Z M 1659.221 225.62 L 1720.387 225.62 L 1689.524 141.133 Z M 1817.722 283.854 L 1817.722 122.56 C 1817.722 114.181 1819.63 107.897 1823.447 103.707 C 1827.264 99.518 1832.198 97.423 1838.25 97.423 C 1844.488 97.423 1849.538 99.494 1853.402 103.637 C 1857.265 107.78 1859.197 114.088 1859.197 122.56 L 1859.197 283.854 C 1859.197 292.326 1857.265 298.656 1853.402 302.846 C 1849.538 307.035 1844.488 309.13 1838.25 309.13 C 1832.292 309.13 1827.381 307.012 1823.517 302.776 C 1819.653 298.54 1817.722 292.232 1817.722 283.854 Z"/>
    </mask>
  </defs>

  <g filter="url(#softShadow)">
    <rect x="0" y="0" width="2400" height="520" fill="url(#threesixtyGradient)" mask="url(#wordMask)"/>
    <rect x="0" y="0" width="2400" height="240" fill="url(#softHighlight)" mask="url(#wordMask)"/>
  </g>

  <path d="M1728 86 C1832 86 1910 164 1910 268 C1910 372 1832 450 1728 450 C1624 450 1546 372 1546 268 C1546 164 1624 86 1728 86 Z"
        fill="#7CCBC8" opacity="0.06"/>
  <path d="M78 390 C430 430 720 418 1008 386 C1296 354 1588 344 1910 386"
        fill="none" stroke="#FFFFFF" stroke-width="16" stroke-linecap="round" opacity="0.16"/>
</svg>
