<?xml version="1.0" encoding="UTF-8"?>
<svg xmlns="http://www.w3.org/2000/svg" width="4000" height="1292" viewBox="0 0 4000 1292"><defs><linearGradient id="logoGrad" x1="0" y1="0" x2="4000" y2="0" gradientUnits="userSpaceOnUse"><stop offset="0" stop-color="#B9B8E0"/><stop offset="0.16" stop-color="#A9A7DA"/><stop offset="0.29" stop-color="#88B5DA"/><stop offset="0.48" stop-color="#9DC4D8"/><stop offset="0.64" stop-color="#99D2CB"/><stop offset="0.78" stop-color="#74C8C7"/><stop offset="1" stop-color="#A4D5CC"/></linearGradient></defs><path d="M 2194 25.054 C 2177.908 26.431, 2158.906 28.936, 2144 31.646 C 2136.575 32.995, 2125.550 34.964, 2119.500 36.020 C 2105.991 38.378, 2082.916 43.432, 2073.500 46.095 C 2069.650 47.184, 2062.497 49.192, 2057.604 50.557 C 2027.585 58.934, 1956.379 87.147, 1942.217 96.275 C 1938.522 98.657, 1932.350 102.069, 1928.500 103.858 C 1924.650 105.647, 1918.800 108.824, 1915.500 110.916 C 1912.200 113.009, 1906.500 116.360, 1902.834 118.363 C 1899.167 120.366, 1892.642 124.593, 1888.334 127.756 C 1884.025 130.920, 1878.480 134.821, 1876.011 136.427 C 1869.260 140.815, 1826.501 175.827, 1811.063 189.606 C 1767.492 228.498, 1720.995 286.664, 1690.443 340.500 C 1683.460 352.803, 1652.843 414.507, 1651.491 419 C 1651.077 420.375, 1648.997 425.384, 1646.869 430.132 C 1640.581 444.160, 1641.337 448.454, 1651.274 455.160 C 1654.698 457.470, 1659.975 461.465, 1663 464.037 C 1666.025 466.609, 1671.200 470.524, 1674.500 472.737 C 1681.393 477.361, 1712.401 506.405, 1731.500 526.128 C 1751.154 546.424, 1774.669 577.463, 1805.552 623.874 C 1817.637 642.035, 1820.985 643.199, 1823.021 629.949 C 1823.566 626.402, 1824.909 618.325, 1826.007 612 C 1827.104 605.675, 1828.660 596.435, 1829.463 591.467 C 1832.150 574.862, 1845.829 529.358, 1852.751 514 C 1854.362 510.425, 1856.948 503.675, 1858.497 499 C 1864.702 480.278, 1894.935 425.313, 1910.751 404 C 1931.892 375.511, 1982.925 326.143, 2003 314.761 C 2006.025 313.046, 2012.325 309.081, 2017 305.950 C 2028.120 298.502, 2051.419 285.541, 2056.500 283.976 C 2058.700 283.299, 2069.725 278.468, 2081 273.242 C 2102.861 263.108, 2120.216 256.921, 2134 254.347 C 2138.675 253.474, 2148.125 251.257, 2155 249.421 C 2161.875 247.585, 2170.875 245.802, 2175 245.459 C 2179.125 245.116, 2186.325 244.198, 2191 243.421 C 2201.331 241.702, 2258.624 241.446, 2275.500 243.043 C 2310.269 246.333, 2349.113 258.692, 2394 280.744 C 2424.521 295.738, 2426.592 297.039, 2458.500 321.257 C 2487.233 343.064, 2488.157 343.899, 2508.020 366 C 2516.176 375.075, 2526.160 385.693, 2530.208 389.596 C 2538.233 397.333, 2548.367 411.853, 2556.749 427.624 C 2559.637 433.056, 2566.797 445.150, 2572.661 454.500 C 2584.860 473.951, 2591.806 487.947, 2598.467 506.500 C 2601.034 513.650, 2604.429 523.100, 2606.011 527.500 C 2610.723 540.611, 2616.762 560.200, 2617.493 564.747 C 2619.679 578.355, 2624.860 575.945, 2635.223 556.500 C 2667.067 496.751, 2730.914 421.661, 2778.234 388.307 C 2792.818 378.028, 2793.453 373.663, 2782.790 357 C 2780.854 353.975, 2777.890 348.760, 2776.203 345.412 C 2774.515 342.064, 2768.492 332.381, 2762.817 323.895 C 2757.143 315.409, 2749.240 303.299, 2745.255 296.983 C 2741.271 290.667, 2734.521 281.421, 2730.255 276.436 C 2725.990 271.451, 2717.437 261.239, 2711.250 253.744 C 2663.238 195.581, 2600.104 142.042, 2536.155 105.257 C 2498.269 83.464, 2438.792 57.913, 2409 50.632 C 2403.225 49.220, 2396.006 47.207, 2392.958 46.158 C 2389.910 45.109, 2384.060 43.701, 2379.958 43.029 C 2375.856 42.357, 2363.500 39.860, 2352.500 37.481 C 2341.500 35.101, 2328 32.659, 2322.500 32.055 C 2317 31.450, 2308.675 30.297, 2304 29.493 C 2277.711 24.970, 2221.493 22.701, 2194 25.054 M 3833.919 24.948 C 3818.133 27.834, 3790.726 39.346, 3775.448 49.508 C 3730.911 79.131, 3712.611 148.218, 3734.672 203.445 C 3745.979 231.749, 3765.863 254.082, 3793.536 269.557 C 3831.467 290.770, 3883.343 287.637, 3920 261.922 C 3954.795 237.512, 3976.471 197.579, 3976.410 158 C 3976.325 103.732, 3948.483 58.451, 3900.220 34.089 C 3885.444 26.631, 3850.826 21.858, 3833.919 24.948 M 1504.500 29.603 C 1499 30.355, 1486.175 31.666, 1476 32.516 C 1451.496 34.564, 1436.406 37.144, 1408 44.142 C 1403.325 45.293, 1395.900 47.118, 1391.500 48.197 C 1374.249 52.428, 1364.967 55.303, 1352 60.433 C 1344.575 63.371, 1334.962 67.015, 1330.638 68.530 C 1326.314 70.045, 1316.189 74.617, 1308.138 78.690 C 1300.087 82.763, 1289.900 87.680, 1285.500 89.617 C 1281.100 91.553, 1274.800 94.847, 1271.500 96.936 C 1268.200 99.025, 1260.728 103.259, 1254.895 106.344 C 1216.559 126.622, 1165.926 169.630, 1130.500 212.007 C 1126.650 216.613, 1119.955 224.233, 1115.622 228.940 C 1111.288 233.648, 1104.571 242, 1100.695 247.500 C 1096.818 253, 1089.518 263.350, 1084.473 270.500 C 1053.021 315.071, 1032.656 350.816, 1015.536 391.500 C 1011.833 400.300, 1006.422 413.125, 1003.512 420 C 993.110 444.571, 976.630 497.595, 968.545 532.500 C 966.507 541.300, 963.482 553.900, 961.823 560.500 C 955.012 587.603, 952.122 605.070, 947.930 644.500 C 947.403 649.450, 946.530 655.655, 945.989 658.288 C 945.447 660.922, 944.551 671.392, 943.997 681.554 C 943.443 691.717, 942.317 707.994, 941.495 717.727 C 939.377 742.799, 939.345 848.313, 941.451 860.857 C 942.250 865.611, 943.629 874.675, 944.517 881 C 946.489 895.057, 953.872 928.917, 958.051 943.077 C 966.178 970.616, 976.452 1000.602, 980.831 1009.567 C 983.499 1015.030, 986.486 1021.975, 987.467 1025 C 993.357 1043.160, 1034.495 1104.748, 1055.998 1127.597 C 1061.224 1133.151, 1067.679 1140.253, 1070.341 1143.380 C 1073.004 1146.507, 1079.754 1152.508, 1085.341 1156.716 C 1102.050 1169.300, 1117.039 1181.052, 1125 1187.813 C 1137.560 1198.479, 1189.852 1227.528, 1208.777 1234.352 C 1212.779 1235.796, 1217.314 1237.628, 1218.855 1238.425 C 1225.696 1241.963, 1247.463 1248.252, 1270.500 1253.347 C 1334.023 1267.395, 1381.529 1269.329, 1436 1260.083 C 1473.797 1253.668, 1540.319 1232.064, 1560.197 1219.749 C 1564.214 1217.260, 1571.102 1213.425, 1575.504 1211.225 C 1583.914 1207.022, 1587.769 1204.529, 1610.500 1188.590 C 1642.405 1166.219, 1658.607 1151.452, 1692.170 1114.153 C 1720.744 1082.399, 1721.175 1081.369, 1710.623 1070.122 C 1701.268 1060.152, 1664.840 1011.649, 1649.298 988.469 C 1633.272 964.567, 1600.251 903.405, 1591.545 881.500 C 1587.177 870.508, 1586.218 869, 1583.597 869 C 1580.209 869, 1579.318 870.559, 1576.989 880.560 C 1558.165 961.386, 1494.608 1027.727, 1418.078 1046.431 C 1369.194 1058.378, 1314.949 1051.646, 1271.500 1028.240 C 1249.425 1016.349, 1244.341 1012.444, 1223 990.999 C 1201.847 969.743, 1182.810 943.360, 1176.468 926.512 C 1175.094 922.861, 1172.853 917.670, 1171.488 914.977 C 1158.213 888.780, 1152.330 828.093, 1160.100 797.500 C 1176.519 732.851, 1197.041 697.613, 1236.714 665.952 C 1245.219 659.165, 1270.461 644.145, 1277.553 641.652 C 1279.782 640.869, 1284.458 638.788, 1287.945 637.028 C 1340.127 610.686, 1421.210 616.265, 1478.671 650.149 C 1497.524 661.267, 1524.632 683.487, 1542.310 702.313 C 1562.631 723.953, 1594.018 773.468, 1604.393 800.253 C 1606.789 806.439, 1609.681 813.075, 1610.820 815 C 1611.959 816.925, 1614.998 824.125, 1617.575 831 C 1620.151 837.875, 1624.942 849.575, 1628.222 857 C 1631.501 864.425, 1635.731 874.325, 1637.622 879 C 1642.515 891.097, 1650.105 906.591, 1657.951 920.500 C 1661.674 927.100, 1666.963 936.550, 1669.705 941.500 C 1683.413 966.249, 1694.143 983.169, 1702.999 994 C 1705.022 996.475, 1708.950 1001.875, 1711.726 1006 C 1714.502 1010.125, 1719.063 1016.100, 1721.860 1019.277 C 1724.657 1022.455, 1730.666 1029.648, 1735.213 1035.263 C 1739.760 1040.877, 1746.212 1048.403, 1749.551 1051.986 C 1752.891 1055.569, 1757.687 1061.200, 1760.211 1064.500 C 1765.321 1071.183, 1783.782 1089.489, 1791.500 1095.526 C 1794.250 1097.677, 1800.550 1103.296, 1805.500 1108.013 C 1820.249 1122.067, 1878.211 1164.195, 1897.107 1174.596 C 1901.723 1177.137, 1909.325 1181.628, 1914 1184.576 C 1918.675 1187.525, 1926.574 1191.703, 1931.553 1193.862 C 1936.533 1196.020, 1945.758 1200.378, 1952.053 1203.546 C 1970.758 1212.959, 1997.536 1223.583, 2013.767 1228.032 C 2019.414 1229.580, 2028.189 1232.214, 2033.267 1233.886 C 2065.958 1244.650, 2124.360 1255.484, 2168.500 1258.972 C 2215.224 1262.665, 2259.514 1263.968, 2270.500 1261.973 C 2277.654 1260.674, 2288.684 1259.294, 2302.500 1257.970 C 2318.560 1256.430, 2334.701 1253.758, 2357 1248.945 C 2387.374 1242.391, 2392.255 1241.144, 2412.304 1234.816 C 2422.862 1231.484, 2434.706 1227.941, 2438.624 1226.942 C 2442.542 1225.944, 2451.767 1222.432, 2459.124 1219.138 C 2466.481 1215.845, 2476.100 1211.806, 2480.500 1210.164 C 2492.652 1205.628, 2513.973 1195.718, 2520.331 1191.651 C 2523.448 1189.657, 2529.261 1186.386, 2533.249 1184.381 C 2537.237 1182.377, 2542.300 1179.508, 2544.500 1178.007 C 2546.700 1176.506, 2555.925 1170.822, 2565 1165.375 C 2599.249 1144.819, 2637.075 1116.569, 2658.849 1095.285 C 2663.607 1090.634, 2670.898 1084.215, 2675.052 1081.020 C 2684.275 1073.926, 2698.647 1058.913, 2709.056 1045.500 C 2713.324 1040, 2722.060 1029.200, 2728.469 1021.500 C 2734.879 1013.800, 2743.257 1003, 2747.087 997.500 C 2750.917 992, 2756.993 983.347, 2760.588 978.272 C 2764.183 973.197, 2769.936 963.747, 2773.372 957.272 C 2776.808 950.797, 2783.383 938.975, 2787.983 931 C 2802.486 905.853, 2810.664 888.462, 2817.009 869.278 C 2820.242 859.500, 2825.114 845.194, 2827.835 837.487 C 2834.358 819.009, 2837.113 807.445, 2842.525 775.826 C 2850.137 731.358, 2856.585 708.925, 2868.585 685.168 C 2872.567 677.285, 2876.812 668.510, 2878.020 665.668 C 2884.923 649.423, 2897.562 631.256, 2912.749 615.749 C 2946.916 580.861, 2963.888 568.369, 2997 553.734 C 3042.159 533.775, 3098.713 527.456, 3146.357 537.048 C 3181.738 544.170, 3227.163 566.600, 3252.583 589.500 C 3298.788 631.125, 3323.401 670.325, 3338.286 726 L 3343.500 745.500 3343.500 781.500 C 3343.500 828.894, 3342.185 838.004, 3330.822 869.340 C 3316.379 909.169, 3303.840 930.819, 3280.629 956 C 3274.799 962.325, 3265.309 972.918, 3259.540 979.541 C 3246.366 994.663, 3239.376 1000.503, 3222.740 1010.286 C 3194.516 1026.884, 3169.901 1037.199, 3147.083 1041.989 C 3141.354 1043.192, 3135.701 1044.543, 3134.520 1044.992 C 3120.609 1050.281, 3066.899 1047.687, 3029.056 1039.898 C 3021.060 1038.252, 2979.478 1020.473, 2972.500 1015.715 C 2969.200 1013.466, 2964.025 1010.220, 2961 1008.502 C 2943.567 998.604, 2922.998 981.409, 2909.559 965.500 C 2891.796 944.473, 2883.807 932.362, 2871.427 907.690 C 2859.197 883.315, 2857.704 883.005, 2849.540 903.143 C 2844.664 915.168, 2831.283 942.086, 2826.331 949.830 C 2824.456 952.761, 2820.156 960.411, 2816.775 966.830 C 2810.340 979.044, 2797.320 999.316, 2790.975 1007 C 2788.931 1009.475, 2784.730 1015.387, 2781.639 1020.138 C 2778.548 1024.890, 2773.316 1031.760, 2770.012 1035.405 C 2766.708 1039.051, 2760.108 1047.314, 2755.344 1053.767 C 2750.581 1060.220, 2744.302 1068.224, 2741.391 1071.554 C 2730.559 1083.947, 2730.999 1087.156, 2746 1105.173 C 2750.675 1110.788, 2756.203 1117.658, 2758.285 1120.441 C 2763.081 1126.850, 2785.008 1147.520, 2798.315 1158.175 C 2803.917 1162.661, 2812.100 1169.545, 2816.500 1173.474 C 2831.579 1186.938, 2839.145 1192.041, 2859.506 1202.480 C 2865.234 1205.417, 2873.044 1209.916, 2876.861 1212.477 C 2880.678 1215.038, 2887.784 1218.615, 2892.651 1220.427 C 2897.518 1222.238, 2905.582 1225.772, 2910.570 1228.280 C 2915.559 1230.788, 2922.309 1233.593, 2925.570 1234.513 C 2928.832 1235.433, 2937.800 1238.205, 2945.500 1240.673 C 2983.336 1252.801, 3026.600 1261.012, 3073.500 1264.967 C 3102.108 1267.380, 3148.830 1263.326, 3182.500 1255.510 C 3188 1254.233, 3194.525 1252.891, 3197 1252.529 C 3207.979 1250.920, 3235.525 1243.329, 3247.934 1238.494 C 3255.395 1235.586, 3263.510 1232.667, 3265.967 1232.007 C 3278.306 1228.690, 3302.802 1215.918, 3324.724 1201.371 C 3344.776 1188.064, 3345.953 1188.901, 3346.003 1216.500 C 3346.049 1242.627, 3348.406 1251.566, 3356.329 1255.675 C 3359.085 1257.104, 3364.402 1257.344, 3397 1257.509 C 3417.625 1257.614, 3448.450 1258.271, 3465.500 1258.969 C 3528.672 1261.557, 3551.468 1258.964, 3556.370 1248.633 C 3558.636 1243.858, 3558.912 373.118, 3556.649 367.702 C 3554.804 363.286, 3548.909 358.334, 3543.763 356.877 C 3538.770 355.463, 3536.073 355.446, 3449 356.264 C 3347.595 357.217, 3347.424 357.252, 3345.998 377.034 C 3344.934 391.775, 3342.522 392.297, 3323.493 381.903 C 3304.292 371.415, 3300.012 369.352, 3292.402 366.911 C 3288.606 365.693, 3277.969 361.404, 3268.763 357.379 C 3259.558 353.355, 3249.208 349.341, 3245.763 348.461 C 3242.319 347.580, 3233.650 344.915, 3226.500 342.537 C 3219.350 340.160, 3210.350 337.705, 3206.500 337.083 C 3202.650 336.460, 3194.775 334.855, 3189 333.517 C 3148.918 324.226, 3083.635 321.275, 3044 326.962 C 2997.586 333.622, 2970.685 339.634, 2945.500 348.977 C 2937.800 351.833, 2927 355.644, 2921.500 357.446 C 2905.020 362.844, 2874.075 376.696, 2863.726 383.308 C 2860.852 385.144, 2854.675 388.634, 2850 391.063 C 2845.325 393.492, 2836.100 399.330, 2829.500 404.038 C 2822.900 408.745, 2812.325 416.127, 2806 420.442 C 2764.393 448.823, 2712.328 506.647, 2683.489 556.500 C 2670.790 578.453, 2653.196 615.942, 2650.059 627.732 C 2649.439 630.059, 2647.565 635.009, 2645.893 638.732 C 2643.476 644.115, 2621.863 726.935, 2618.533 743.575 C 2614.363 764.417, 2582.846 835.079, 2568.836 855 C 2566.708 858.025, 2561.243 866.125, 2556.691 873 C 2543.485 892.943, 2516.389 924.633, 2504.961 933.500 C 2501.416 936.250, 2494.688 942.141, 2490.008 946.591 C 2476.254 959.672, 2446.716 980.656, 2432.680 987.318 C 2428.692 989.211, 2422.029 992.980, 2417.871 995.694 C 2413.714 998.408, 2406.305 1002.347, 2401.406 1004.447 C 2396.508 1006.548, 2386.875 1010.860, 2380 1014.029 C 2364.362 1021.238, 2333.847 1031.437, 2320 1034.083 C 2314.225 1035.186, 2305.450 1036.959, 2300.500 1038.021 C 2259.359 1046.854, 2178.834 1046.791, 2146.500 1037.900 C 2142.650 1036.841, 2134.300 1035.085, 2127.944 1033.997 C 2110.113 1030.945, 2070.770 1017.864, 2053.619 1009.285 C 2049.835 1007.392, 2042.851 1004.157, 2038.100 1002.096 C 2010.187 989.990, 1956.603 951.853, 1937.988 930.844 C 1933.922 926.255, 1926.951 918.675, 1922.499 914 C 1918.046 909.325, 1912.632 903.250, 1910.469 900.500 C 1908.305 897.750, 1904.690 893.397, 1902.434 890.827 C 1883.852 869.653, 1848.662 808.187, 1834.118 771.500 C 1831.720 765.450, 1827.840 757.125, 1825.496 753 C 1823.153 748.875, 1820.015 742.575, 1818.523 739 C 1817.032 735.425, 1814.094 729.350, 1811.996 725.500 C 1809.897 721.650, 1805.174 711.339, 1801.501 702.586 C 1797.827 693.834, 1792.895 683.484, 1790.540 679.586 C 1788.185 675.689, 1785.235 670.475, 1783.983 668 C 1772.992 646.266, 1735.637 592.860, 1717.884 573.500 C 1714.354 569.650, 1708.853 563.260, 1705.660 559.299 C 1696.706 548.195, 1676.507 529.234, 1662.844 519.108 C 1656.055 514.077, 1646.771 507.025, 1642.212 503.437 C 1637.654 499.849, 1628.879 493.849, 1622.712 490.105 C 1616.546 486.360, 1606.550 480.263, 1600.500 476.556 C 1571.521 458.798, 1507.996 433.860, 1474.500 427.092 C 1433.192 418.745, 1417.699 416.886, 1384.500 416.293 C 1354.138 415.751, 1325.427 417.340, 1307.705 420.543 C 1303.192 421.359, 1295 422.710, 1289.500 423.545 C 1284 424.381, 1277.475 425.706, 1275 426.491 C 1251.389 433.978, 1241 434.897, 1241 429.499 C 1241 414.311, 1304.039 339.727, 1335 318.284 C 1337.475 316.569, 1342.493 312.488, 1346.152 309.213 C 1349.810 305.938, 1355.435 301.770, 1358.652 299.950 C 1361.868 298.131, 1367.866 294.389, 1371.980 291.635 C 1376.094 288.881, 1383.069 285.192, 1387.480 283.436 C 1391.891 281.681, 1402.025 277.028, 1410 273.096 C 1423.947 266.220, 1439.009 260.792, 1453.229 257.516 C 1456.930 256.664, 1465.255 254.452, 1471.729 252.601 C 1484.387 248.982, 1494.304 247.434, 1511.179 246.444 C 1528.847 245.407, 1531.291 243.055, 1532.957 225.480 C 1534.470 209.523, 1534.235 169.888, 1532.392 130.159 C 1531.335 107.385, 1530.954 85.556, 1531.281 66.500 C 1531.976 25.887, 1531.950 25.850, 1504.500 29.603 M 97.667 34.505 C 89.451 36.592, 84.381 41.627, 82.929 49.142 C 81.639 55.819, 81.769 227.260, 83.067 230.685 C 84.583 234.688, 87.872 237.974, 92.500 240.110 C 96.348 241.886, 104.472 241.957, 306.527 241.978 C 494.977 241.998, 516.783 242.160, 518.777 243.557 C 524.268 247.402, 524.690 246.906, 467.250 304 C 437.646 333.425, 410.979 360.350, 407.990 363.834 C 405 367.318, 399.795 372.336, 396.422 374.987 C 387.725 381.821, 360.762 408.988, 330.874 441.028 C 316.780 456.138, 300.467 473.044, 294.624 478.598 C 281.230 491.329, 280.822 493.213, 289.294 503.237 C 292.205 506.681, 299.160 516.250, 304.748 524.500 C 310.337 532.750, 317.151 542.200, 319.890 545.500 C 322.630 548.800, 327.680 555.550, 331.114 560.500 C 341.087 574.877, 353.208 591.011, 358.914 597.500 C 361.815 600.800, 367.022 607.775, 370.485 613 C 383.345 632.404, 385.405 633.190, 407.577 627.154 C 494.609 603.458, 589.400 641.344, 635.129 718.102 C 663.097 765.046, 674.816 828.307, 664.530 876.803 C 661.540 890.896, 654.924 913.507, 651.786 920.355 C 621.935 985.491, 579.339 1023.406, 512 1044.780 C 458.982 1061.609, 380.483 1047.262, 338.867 1013.137 C 333.074 1008.387, 324.640 1001.619, 320.126 998.098 C 297.311 980.302, 265.835 934.670, 259.012 909.500 C 257.819 905.100, 255.488 897.225, 253.831 892 C 251.599 884.959, 250.450 878.488, 249.393 867 C 246.746 838.226, 246.961 838.427, 217.209 836.767 C 201.336 835.881, 185.546 836.021, 136.087 837.484 C 102.311 838.482, 67.886 839.024, 59.587 838.688 C 28.341 837.420, 22.837 843.794, 27.027 876.398 C 33.682 928.192, 35.097 935.275, 44.429 963.500 C 47.884 973.950, 52.363 987.675, 54.382 994 C 56.401 1000.325, 61.615 1012.700, 65.968 1021.500 C 70.321 1030.300, 75.691 1041.461, 77.901 1046.303 C 90.832 1074.629, 143.431 1140.300, 170 1161.291 C 174.675 1164.984, 181.875 1170.954, 186 1174.558 C 196.068 1183.353, 218.465 1198.025, 235 1206.657 C 242.425 1210.533, 251.650 1215.635, 255.500 1217.996 C 259.350 1220.356, 265.875 1223.752, 270 1225.542 C 274.125 1227.332, 280.875 1230.351, 285 1232.251 C 298.001 1238.239, 310.505 1242.859, 323.715 1246.555 C 330.747 1248.523, 340.325 1251.427, 345 1253.008 C 349.675 1254.590, 358.450 1256.590, 364.500 1257.454 C 370.550 1258.317, 380.450 1259.916, 386.500 1261.007 C 406.038 1264.531, 422.760 1265.500, 464 1265.500 L 503.500 1265.500 517 1262.313 C 524.425 1260.560, 535.500 1258.444, 541.612 1257.611 C 547.724 1256.778, 555.149 1255.171, 558.112 1254.039 C 561.075 1252.908, 571.367 1249.945, 580.982 1247.455 C 591.731 1244.671, 603.286 1240.863, 610.982 1237.568 C 617.867 1234.621, 627.550 1230.543, 632.500 1228.507 C 653.922 1219.697, 685.251 1202.492, 698.799 1192.099 C 702.814 1189.020, 709.789 1183.887, 714.299 1180.693 C 754.452 1152.261, 803.009 1097.458, 832.753 1047 C 849.898 1017.916, 867.199 975.463, 873.506 947 C 874.908 940.675, 877.367 930.325, 878.970 924 C 880.574 917.675, 882.600 907.325, 883.474 901 C 884.348 894.675, 885.787 884.576, 886.672 878.558 C 893.686 830.850, 878.135 725.131, 857.023 677 C 829.002 613.117, 784.790 551.339, 745.500 521.168 C 741.100 517.789, 732.775 510.987, 727 506.052 C 712.637 493.778, 679.673 472.359, 662 463.817 C 640.065 453.215, 635.345 447.507, 640.932 438.343 C 648.432 426.045, 693.899 376.657, 726.094 345.839 C 735.667 336.675, 748.225 323.914, 754 317.480 C 759.775 311.046, 776.278 293.569, 790.673 278.641 C 827.423 240.532, 824.067 246.924, 823.290 216.500 C 822.944 202.928, 823.406 176.495, 824.498 147.500 C 826.988 81.367, 825.957 48.607, 821.179 42 C 816.264 35.204, 825.928 35.631, 682.562 35.872 C 585.523 36.034, 552.259 35.793, 548.500 34.897 C 541.107 33.136, 104.552 32.756, 97.667 34.505 M 3858 357.578 C 3853.325 357.744, 3828.575 358.392, 3803 359.018 C 3767.912 359.878, 3755.379 360.511, 3751.934 361.598 C 3746.932 363.176, 3740.762 368.791, 3739.060 373.315 C 3738.319 375.282, 3738 507.899, 3738 813.249 L 3738 1250.369 3740.035 1254.573 C 3744.938 1264.701, 3749.544 1265.860, 3782.560 1265.271 C 3799.498 1264.968, 3822.806 1265.386, 3845.339 1266.395 C 3920.344 1269.754, 3950.800 1268.214, 3958.777 1260.659 C 3964.712 1255.038, 3964.810 1253.872, 3963.920 1199.500 C 3962.747 1127.806, 3962.905 909.732, 3964.289 691 C 3964.955 585.675, 3965.373 471.375, 3965.218 437 L 3964.935 374.500 3962.218 369.046 C 3958.393 361.370, 3955.860 360.329, 3938 359.087 C 3922.650 358.019, 3872.312 357.070, 3858 357.578" fill="url(#logoGrad)" fill-rule="evenodd"/></svg>