<?xml version="1.0" encoding="UTF-8"?>
<svg xmlns="http://www.w3.org/2000/svg" width="8000" height="2583" viewBox="0 0 8000 2583" version="1.1">
  <title>360ai cleaned seam vector logo</title>
  <desc>Pure SVG vector logo with the original 3 restored with clean upper bar and manually smoothed central inner curve and 6-to-center seam, simplified Bezier curves, and no embedded raster image.</desc>
  <defs>
    <linearGradient id="logoGrad" x1="0" y1="0" x2="8000" y2="0" gradientUnits="userSpaceOnUse">
      <stop offset="0" stop-color="#B9B8E0"/><stop offset="0.16" stop-color="#A9A7DA"/><stop offset="0.29" stop-color="#88B5DA"/><stop offset="0.48" stop-color="#9DC4D8"/><stop offset="0.64" stop-color="#99D2CB"/><stop offset="0.78" stop-color="#74C8C7"/><stop offset="1" stop-color="#A4D5CC"/>
    </linearGradient>
    <linearGradient id="softLight" x1="0" y1="0" x2="0" y2="2583" gradientUnits="userSpaceOnUse"><stop offset="0" stop-color="#FFFFFF" stop-opacity="0.22"/><stop offset="1" stop-color="#FFFFFF" stop-opacity="0"/></linearGradient>
    <clipPath id="logoClip" clipPathUnits="userSpaceOnUse"><path d="M 190 60 Q 155 60 155 95 V 455 Q 155 486 186 486 H 1026 V 501 L 634 893 L 559 973 L 559 990 L 758 1265 L 902 1242 C 915.09 1241.15 979.14 1248.07 989 1250 C 998.86 1251.93 1065.12 1270.73 1076 1276 C 1086.88 1281.27 1171.76 1335.69 1181 1343 C 1190.24 1350.31 1232.37 1395.31 1239 1405 C 1245.63 1414.69 1293.24 1502.16 1298 1514 C 1302.76 1525.84 1321.58 1601.7 1323 1614 C 1324.42 1626.3 1324.47 1718.76 1323 1731 C 1321.53 1743.24 1300.57 1820.25 1297 1830 C 1293.43 1839.75 1264.53 1895.69 1260 1903 C 1255.47 1910.31 1222.44 1953.05 1217 1959 C 1211.56 1964.95 1169.72 2003.41 1164 2008 C 1158.28 2012.59 1124.22 2035.81 1116 2040 C 1107.78 2044.19 1027.67 2078.88 1019 2082 C 1010.33 2085.12 972.07 2094.26 963 2095 C 953.93 2095.74 869.88 2096.19 859 2095 C 848.12 2093.81 778.48 2076.32 771 2074 C 763.52 2071.68 733.91 2058.08 727 2054 C 720.09 2049.92 656.65 2008.18 649 2002 C 641.35 1995.82 599.25 1955.09 592 1945 C 584.75 1934.91 526.27 1835.11 521 1824 C 515.73 1812.89 500.47 1756.88 499 1749 L 499 1685 L 481 1670 L 69 1670 L 50 1670 L 50 1699 C 41.77 1704.72 44.53 1771.78 46 1783 L 68 1897 L 121 2045 L 159 2117 C 165.35 2127.26 224.16 2214.89 233 2226 C 241.84 2237.11 302.7 2302.4 315 2313 C 327.3 2323.6 433.74 2403.25 450 2413 C 466.26 2422.75 582.73 2478.31 602 2485 C 621.27 2491.69 768.24 2528.11 790 2531 C 811.76 2533.89 966.11 2537.42 986 2536 C 1005.89 2534.58 1125.08 2510.31 1141 2506 C 1156.92 2501.69 1251.3 2467.54 1267 2460 C 1282.7 2452.46 1403.44 2382.97 1418 2373 C 1432.56 2363.03 1514.03 2293.52 1524 2284 L 1594 2205 L 1666 2099 C 1672.74 2087.67 1707.22 2021.32 1713 2005 C 1718.78 1988.68 1764.43 1825.73 1768 1811 C 1771.57 1796.27 1776 1760.41 1776 1745 C 1776 1729.59 1770.61 1559.29 1768 1539 C 1765.39 1518.71 1736.18 1404.17 1730 1387 C 1723.82 1369.83 1666.82 1250.11 1659 1236 C 1651.18 1221.89 1601.8 1149.56 1592 1138 C 1582.2 1126.44 1497.9 1042.43 1486 1032 L 1382 954 L 1271 892 L 1271 877 L 1646 486 V 84 Q 1646 60 1623 60 H 190 Z M 2350 317 C 2327.84 337.08 2231.96 439.28 2213 462 C 2194.04 484.72 2132.04 567.08 2113 601 C 2093.96 634.92 1990.12 849.84 1975 886 C 1959.88 922.16 1931.04 1023.88 1924 1053 L 1887 1250 L 1870 1447 C 1868.64 1484.2 1865.28 1673.4 1870 1715 C 1874.72 1756.6 1917.24 1932.36 1929 1967 C 1940.76 2001.64 1998.68 2120.16 2017 2148 C 2035.32 2175.84 2137.12 2294.44 2158 2315 C 2178.88 2335.56 2258.96 2392.76 2278 2405 C 2297.04 2417.24 2374.88 2459.2 2396 2468 C 2417.12 2476.8 2518.16 2509.56 2542 2515 C 2565.84 2520.44 2670.24 2534.72 2694 2536 C 2717.76 2537.28 2819 2533.08 2839 2531 C 2859 2528.92 2924.88 2515.36 2944 2510 C 2963.12 2504.64 3057.2 2473.28 3078 2464 C 3098.8 2454.72 3184.96 2406.56 3204 2394 C 3223.04 2381.44 3297.2 2325.56 3316 2307 L 3439 2162 L 3279 1940 L 3163 1714 L 3105 1861 C 3095.64 1879.8 3056.96 1936.04 3046 1949 C 3035.04 1961.96 2983.92 2012.36 2968 2023 C 2952.08 2033.64 2865.8 2075.92 2847 2082 C 2828.2 2088.08 2750.36 2098.6 2733 2099 C 2715.64 2099.4 2647.28 2091.96 2630 2087 C 2612.72 2082.04 2533.56 2047.4 2517 2037 C 2500.44 2026.6 2434.84 1969.48 2423 1957 C 2411.16 1944.52 2376.6 1894.92 2369 1881 C 2361.4 1867.08 2332.72 1798.84 2328 1783 C 2323.28 1767.16 2310.72 1697.8 2310 1683 C 2309.28 1668.2 2315.88 1612.64 2319 1598 C 2322.12 1583.36 2340.92 1517.12 2349 1500 C 2357.08 1482.88 2408.8 1398.16 2420 1384 C 2431.2 1369.84 2475.72 1331.96 2489 1323 C 2502.28 1314.04 2570 1278.16 2586 1272 C 2602 1265.84 2671.88 1247.76 2689 1246 C 2706.12 1244.24 2782.56 1247.2 2800 1250 C 2817.44 1252.8 2889.24 1272.52 2907 1281 C 2924.76 1289.48 3001.76 1336.56 3022 1356 C 3042.24 1375.44 3135.84 1482.24 3160 1524 C 3184.16 1565.76 3302 1836.4 3324 1878 C 3346 1919.6 3415.08 2018.64 3435 2044 C 3454.92 2069.36 3546.92 2171.4 3573 2195 C 3599.08 2218.6 3729.64 2319.16 3761 2339 C 3792.36 2358.84 3934.12 2430.28 3965 2443 C 3995.88 2455.72 4115.48 2491.28 4147 2498 C 4178.52 2504.72 4326.44 2524.68 4359 2527 C 4391.56 2529.32 4522.16 2529.64 4554 2527 C 4585.84 2524.36 4725.4 2501.76 4757 2494 C 4788.6 2486.24 4918.44 2443.04 4949 2430 C 4979.56 2416.96 5109.8 2349.4 5139 2331 C 5168.2 2312.6 5287.52 2224 5314 2200 C 5340.48 2176 5446.88 2061.64 5470 2031 C 5493.12 2000.36 5586.68 1849.96 5603 1817 C 5619.32 1784.04 5664.88 1650.76 5674 1619 C 5683.12 1587.24 5706.2 1449.52 5717 1420 C 5727.8 1390.48 5795.72 1269.52 5809 1250 C 5822.28 1230.48 5870.28 1186.32 5883 1176 C 5895.72 1165.68 5950.08 1129.08 5968 1121 C 5985.92 1112.92 6085.08 1079 6107 1075 C 6128.92 1071 6221.68 1068.92 6242 1071 C 6262.32 1073.08 6341.32 1092.76 6361 1101 C 6380.68 1109.24 6471.6 1161.92 6488 1174 C 6504.4 1186.08 6553.2 1234.48 6566 1252 C 6578.8 1269.52 6638.72 1370.52 6648 1393 C 6657.28 1415.48 6680 1511.56 6682 1533 C 6684 1554.44 6677.4 1640.04 6673 1661 C 6668.6 1681.96 6636.04 1775.64 6627 1795 C 6617.96 1814.36 6571.04 1888.36 6560 1903 C 6548.96 1917.64 6505.64 1965.68 6489 1978 C 6472.36 1990.32 6371.84 2048.28 6352 2057 C 6332.16 2065.72 6259.64 2084.6 6241 2087 C 6222.36 2089.4 6138.6 2089.72 6119 2087 C 6099.4 2084.28 6016.24 2062.12 5996 2053 C 5975.76 2043.88 5882.32 1985.64 5866 1973 C 5849.68 1960.36 5804.48 1912.52 5792 1895 L 5710 1754 L 5605 1960 L 5456 2157 L 5456 2187 C 5469.32 2198.36 5541.68 2282.12 5560 2299 C 5578.32 2315.88 5667.52 2384.08 5690 2398 C 5712.48 2411.92 5817.72 2463.64 5841 2473 C 5864.28 2482.36 5956.04 2509.96 5981 2515 C 6005.96 2520.04 6124.36 2535.36 6153 2536 C 6181.64 2536.64 6311.32 2527.4 6339 2523 C 6366.68 2518.6 6472.6 2491.32 6499 2481 L 6669 2394 L 6682 2394 L 6682 2484 L 6710 2519 L 7090 2519 L 7118 2491 L 7118 734 L 7102 711 L 6708 711 L 6683 730 L 6683 766 L 6668 766 C 6646 759.84 6448.4 674.32 6406 664 C 6363.6 653.68 6175.68 638.28 6138 639 C 6100.32 639.72 5965.8 664.68 5935 673 C 5904.2 681.32 5784.68 726.12 5753 743 C 5721.32 759.88 5566.52 861.36 5539 884 C 5511.48 906.64 5428.76 997.68 5409 1026 C 5389.24 1054.32 5310.08 1191.84 5292 1238 C 5273.92 1284.16 5199.08 1561.16 5183 1603 C 5166.92 1644.84 5107.48 1738.52 5091 1761 C 5074.52 1783.48 4996.68 1866.8 4977 1884 C 4957.32 1901.2 4868.92 1962.8 4845 1976 C 4821.08 1989.2 4702.48 2040.76 4678 2049 C 4653.52 2057.24 4565.72 2076.6 4539 2079 C 4512.28 2081.4 4371.92 2081.72 4344 2079 C 4316.08 2076.28 4210.16 2050.76 4190 2045 C 4169.84 2039.24 4113.2 2018.44 4092 2007 C 4070.8 1995.56 3943.32 1915.04 3925 1902 C 3906.68 1888.96 3877.64 1861.36 3863 1844 C 3840 1818 3782 1738 3742 1685 C 3654 1530 3578 1358 3488 1216 C 3360 1016 3148 880 2912 839 C 2780 816 2638 824 2491 854 L 2562 741 C 2574.88 724.76 2637.76 663.24 2652 651 C 2666.24 638.76 2720.4 598.48 2740 588 C 2759.6 577.52 2871.24 528.4 2897 520 L 3062 483 L 3062 55 L 3032 55 C 3016.16 46.96 2890.2 61.56 2863 67 C 2835.8 72.44 2721.84 102.48 2692 114 C 2662.16 125.52 2517.36 194.76 2490 211 C 2462.64 227.24 2372.16 296.92 2350 317 Z M 3612 369 C 3474 498 3364 684 3272 891 C 3378 1008 3532 1192 3646 1291 C 3660 1188 3694 1063 3738 964 C 3834 748 4044 576 4265 512 C 4524 437 4814 514 5018 742 C 5130 866 5203 1016 5235 1162 C 5276 1088 5330 1018 5375 958 C 5448 862 5525 790 5586 752 C 5472 548 5328 382 5120 248 C 4888 98 4622 34 4345 52 C 4075 70 3818 190 3612 369 Z M 7506 710 H 7888 Q 7932 710 7932 754 V 2496 Q 7932 2540 7888 2540 H 7506 Q 7462 2540 7462 2496 V 754 Q 7462 710 7506 710 Z M 7696 42 C 7841 42 7955 158 7955 306 C 7955 454 7841 570 7696 570 C 7551 570 7437 454 7437 306 C 7437 158 7551 42 7696 42 Z" fill-rule="evenodd"/></clipPath>
  </defs>
  <g clip-path="url(#logoClip)">
    <path d="M 167 71 L 167 90 L 155 368 L 151 468 L 176 486 L 1026 486 L 1026 489 L 634 893 L 559 973 L 559 990 L 758 1265 L 902 1242 C 915.09 1241.15 979.14 1248.07 989 1250 C 998.86 1251.93 1065.12 1270.73 1076 1276 C 1086.88 1281.27 1171.76 1335.69 1181 1343 C 1190.24 1350.31 1232.37 1395.31 1239 1405 C 1245.63 1414.69 1293.24 1502.16 1298 1514 C 1302.76 1525.84 1321.58 1601.7 1323 1614 C 1324.42 1626.3 1324.47 1718.76 1323 1731 C 1321.53 1743.24 1300.57 1820.25 1297 1830 C 1293.43 1839.75 1264.53 1895.69 1260 1903 C 1255.47 1910.31 1222.44 1953.05 1217 1959 C 1211.56 1964.95 1169.72 2003.41 1164 2008 C 1158.28 2012.59 1124.22 2035.81 1116 2040 C 1107.78 2044.19 1027.67 2078.88 1019 2082 C 1010.33 2085.12 972.07 2094.26 963 2095 C 953.93 2095.74 869.88 2096.19 859 2095 C 848.12 2093.81 778.48 2076.32 771 2074 C 763.52 2071.68 733.91 2058.08 727 2054 C 720.09 2049.92 656.65 2008.18 649 2002 C 641.35 1995.82 599.25 1955.09 592 1945 C 584.75 1934.91 526.27 1835.11 521 1824 C 515.73 1812.89 500.47 1756.88 499 1749 L 499 1685 L 481 1670 L 69 1670 L 50 1670 L 50 1699 C 41.77 1704.72 44.53 1771.78 46 1783 L 68 1897 L 121 2045 L 159 2117 C 165.35 2127.26 224.16 2214.89 233 2226 C 241.84 2237.11 302.7 2302.4 315 2313 C 327.3 2323.6 433.74 2403.25 450 2413 C 466.26 2422.75 582.73 2478.31 602 2485 C 621.27 2491.69 768.24 2528.11 790 2531 C 811.76 2533.89 966.11 2537.42 986 2536 C 1005.89 2534.58 1125.08 2510.31 1141 2506 C 1156.92 2501.69 1251.3 2467.54 1267 2460 C 1282.7 2452.46 1403.44 2382.97 1418 2373 C 1432.56 2363.03 1514.03 2293.52 1524 2284 L 1594 2205 L 1666 2099 C 1672.74 2087.67 1707.22 2021.32 1713 2005 C 1718.78 1988.68 1764.43 1825.73 1768 1811 C 1771.57 1796.27 1776 1760.41 1776 1745 C 1776 1729.59 1770.61 1559.29 1768 1539 C 1765.39 1518.71 1736.18 1404.17 1730 1387 C 1723.82 1369.83 1666.82 1250.11 1659 1236 C 1651.18 1221.89 1601.8 1149.56 1592 1138 C 1582.2 1126.44 1497.9 1042.43 1486 1032 L 1382 954 L 1271 892 L 1271 877 L 1646 486 L 1646 84 L 1623 63 L 188 63 L 167 60 Z M 2350 317 C 2327.84 337.08 2231.96 439.28 2213 462 C 2194.04 484.72 2132.04 567.08 2113 601 C 2093.96 634.92 1990.12 849.84 1975 886 C 1959.88 922.16 1931.04 1023.88 1924 1053 L 1887 1250 L 1870 1447 C 1868.64 1484.2 1865.28 1673.4 1870 1715 C 1874.72 1756.6 1917.24 1932.36 1929 1967 C 1940.76 2001.64 1998.68 2120.16 2017 2148 C 2035.32 2175.84 2137.12 2294.44 2158 2315 C 2178.88 2335.56 2258.96 2392.76 2278 2405 C 2297.04 2417.24 2374.88 2459.2 2396 2468 C 2417.12 2476.8 2518.16 2509.56 2542 2515 C 2565.84 2520.44 2670.24 2534.72 2694 2536 C 2717.76 2537.28 2819 2533.08 2839 2531 C 2859 2528.92 2924.88 2515.36 2944 2510 C 2963.12 2504.64 3057.2 2473.28 3078 2464 C 3098.8 2454.72 3184.96 2406.56 3204 2394 C 3223.04 2381.44 3297.2 2325.56 3316 2307 L 3439 2162 L 3279 1940 L 3163 1714 L 3105 1861 C 3095.64 1879.8 3056.96 1936.04 3046 1949 C 3035.04 1961.96 2983.92 2012.36 2968 2023 C 2952.08 2033.64 2865.8 2075.92 2847 2082 C 2828.2 2088.08 2750.36 2098.6 2733 2099 C 2715.64 2099.4 2647.28 2091.96 2630 2087 C 2612.72 2082.04 2533.56 2047.4 2517 2037 C 2500.44 2026.6 2434.84 1969.48 2423 1957 C 2411.16 1944.52 2376.6 1894.92 2369 1881 C 2361.4 1867.08 2332.72 1798.84 2328 1783 C 2323.28 1767.16 2310.72 1697.8 2310 1683 C 2309.28 1668.2 2315.88 1612.64 2319 1598 C 2322.12 1583.36 2340.92 1517.12 2349 1500 C 2357.08 1482.88 2408.8 1398.16 2420 1384 C 2431.2 1369.84 2475.72 1331.96 2489 1323 C 2502.28 1314.04 2570 1278.16 2586 1272 C 2602 1265.84 2671.88 1247.76 2689 1246 C 2706.12 1244.24 2782.56 1247.2 2800 1250 C 2817.44 1252.8 2889.24 1272.52 2907 1281 C 2924.76 1289.48 3001.76 1336.56 3022 1356 C 3042.24 1375.44 3135.84 1482.24 3160 1524 C 3184.16 1565.76 3302 1836.4 3324 1878 C 3346 1919.6 3415.08 2018.64 3435 2044 C 3454.92 2069.36 3546.92 2171.4 3573 2195 C 3599.08 2218.6 3729.64 2319.16 3761 2339 C 3792.36 2358.84 3934.12 2430.28 3965 2443 C 3995.88 2455.72 4115.48 2491.28 4147 2498 C 4178.52 2504.72 4326.44 2524.68 4359 2527 C 4391.56 2529.32 4522.16 2529.64 4554 2527 C 4585.84 2524.36 4725.4 2501.76 4757 2494 C 4788.6 2486.24 4918.44 2443.04 4949 2430 C 4979.56 2416.96 5109.8 2349.4 5139 2331 C 5168.2 2312.6 5287.52 2224 5314 2200 C 5340.48 2176 5446.88 2061.64 5470 2031 C 5493.12 2000.36 5586.68 1849.96 5603 1817 C 5619.32 1784.04 5664.88 1650.76 5674 1619 C 5683.12 1587.24 5706.2 1449.52 5717 1420 C 5727.8 1390.48 5795.72 1269.52 5809 1250 C 5822.28 1230.48 5870.28 1186.32 5883 1176 C 5895.72 1165.68 5950.08 1129.08 5968 1121 C 5985.92 1112.92 6085.08 1079 6107 1075 C 6128.92 1071 6221.68 1068.92 6242 1071 C 6262.32 1073.08 6341.32 1092.76 6361 1101 C 6380.68 1109.24 6471.6 1161.92 6488 1174 C 6504.4 1186.08 6553.2 1234.48 6566 1252 C 6578.8 1269.52 6638.72 1370.52 6648 1393 C 6657.28 1415.48 6680 1511.56 6682 1533 C 6684 1554.44 6677.4 1640.04 6673 1661 C 6668.6 1681.96 6636.04 1775.64 6627 1795 C 6617.96 1814.36 6571.04 1888.36 6560 1903 C 6548.96 1917.64 6505.64 1965.68 6489 1978 C 6472.36 1990.32 6371.84 2048.28 6352 2057 C 6332.16 2065.72 6259.64 2084.6 6241 2087 C 6222.36 2089.4 6138.6 2089.72 6119 2087 C 6099.4 2084.28 6016.24 2062.12 5996 2053 C 5975.76 2043.88 5882.32 1985.64 5866 1973 C 5849.68 1960.36 5804.48 1912.52 5792 1895 L 5710 1754 L 5605 1960 L 5456 2157 L 5456 2187 C 5469.32 2198.36 5541.68 2282.12 5560 2299 C 5578.32 2315.88 5667.52 2384.08 5690 2398 C 5712.48 2411.92 5817.72 2463.64 5841 2473 C 5864.28 2482.36 5956.04 2509.96 5981 2515 C 6005.96 2520.04 6124.36 2535.36 6153 2536 C 6181.64 2536.64 6311.32 2527.4 6339 2523 C 6366.68 2518.6 6472.6 2491.32 6499 2481 L 6669 2394 L 6682 2394 L 6682 2484 L 6710 2519 L 7090 2519 L 7118 2491 L 7118 734 L 7102 711 L 6708 711 L 6683 730 L 6683 766 L 6668 766 C 6646 759.84 6448.4 674.32 6406 664 C 6363.6 653.68 6175.68 638.28 6138 639 C 6100.32 639.72 5965.8 664.68 5935 673 C 5904.2 681.32 5784.68 726.12 5753 743 C 5721.32 759.88 5566.52 861.36 5539 884 C 5511.48 906.64 5428.76 997.68 5409 1026 C 5389.24 1054.32 5310.08 1191.84 5292 1238 C 5273.92 1284.16 5199.08 1561.16 5183 1603 C 5166.92 1644.84 5107.48 1738.52 5091 1761 C 5074.52 1783.48 4996.68 1866.8 4977 1884 C 4957.32 1901.2 4868.92 1962.8 4845 1976 C 4821.08 1989.2 4702.48 2040.76 4678 2049 C 4653.52 2057.24 4565.72 2076.6 4539 2079 C 4512.28 2081.4 4371.92 2081.72 4344 2079 C 4316.08 2076.28 4210.16 2050.76 4190 2045 C 4169.84 2039.24 4113.2 2018.44 4092 2007 C 4070.8 1995.56 3943.32 1915.04 3925 1902 C 3906.68 1888.96 3877.64 1861.36 3863 1844 C 3848.36 1826.64 3770.48 1734.04 3742 1685 C 3713.52 1635.96 3533 1276.28 3507 1231 C 3481 1185.72 3435.72 1138.12 3417 1119 C 3398.28 1099.88 3295.88 1008.72 3273 992 C 3250.12 975.28 3159.88 922.24 3131 910 C 3102.12 897.76 2947.36 845.96 2912 839 C 2876.64 832.04 2722.68 821.8 2689 823 L 2491 854 L 2562 741 C 2574.88 724.76 2637.76 663.24 2652 651 C 2666.24 638.76 2720.4 598.48 2740 588 C 2759.6 577.52 2871.24 528.4 2897 520 L 3062 483 L 3062 55 L 3032 55 C 3016.16 46.96 2890.2 61.56 2863 67 C 2835.8 72.44 2721.84 102.48 2692 114 C 2662.16 125.52 2517.36 194.76 2490 211 C 2462.64 227.24 2372.16 296.92 2350 317 Z M 3612 369 C 3588.56 392.84 3455.64 543.6 3433 574 C 3410.36 604.4 3341.88 723.64 3329 749 L 3272 891 L 3474 1077 L 3631 1291 L 3646 1291 L 3646 1204 C 3659.36 1182.32 3703.64 1034.2 3713 1009 C 3722.36 983.8 3760.6 907.08 3771 889 C 3781.4 870.92 3830.28 798.76 3843 783 C 3855.72 767.24 3914.72 705.6 3930 692 C 3945.28 678.4 4007.2 627.4 4034 613 C 4060.8 598.6 4235.56 522.08 4265 512 C 4294.44 501.92 4378.08 488.68 4402 487 C 4425.92 485.32 4538.08 486.92 4564 491 C 4589.92 495.08 4701.92 528.32 4726 538 C 4750.08 547.68 4846.12 600.08 4865 612 C 4883.88 623.92 4944.64 670.36 4962 687 C 4979.36 703.64 5065.36 797.04 5082 820 C 5098.64 842.96 5157.76 946.64 5170 974 L 5235 1162 L 5375 958 L 5586 752 L 5461 546 C 5444.52 521.68 5397.68 466.32 5380 448 C 5362.32 429.68 5262.88 335.72 5240 317 C 5217.12 298.28 5115.92 227.52 5094 214 C 5072.08 200.48 4998 160.08 4966 148 C 4934 135.92 4728.16 71.48 4694 63 C 4659.84 54.52 4564.92 43.68 4539 42 C 4513.08 40.32 4401.04 38.96 4370 42 C 4338.96 45.04 4191.08 68.24 4151 80 C 4110.92 91.76 3903 173.32 3869 189 C 3835 204.68 3746.56 261.6 3726 276 C 3705.44 290.4 3635.44 345.16 3612 369 Z M 7506 710 H 7888 Q 7932 710 7932 754 V 2496 Q 7932 2540 7888 2540 H 7506 Q 7462 2540 7462 2496 V 754 Q 7462 710 7506 710 Z M 7696 42 C 7841 42 7955 158 7955 306 C 7955 454 7841 570 7696 570 C 7551 570 7437 454 7437 306 C 7437 158 7551 42 7696 42 Z" fill="url(#logoGrad)" fill-rule="evenodd"/>
    <rect x="0" y="0" width="8000" height="2583" fill="url(#softLight)"/>
    <rect x="145" y="65" width="1480" height="410" rx="24" fill="#8F8FD3" opacity="0.18"/>
    <rect x="900" y="820" width="500" height="1660" fill="#6E67C5" opacity="0.15"/>
    <rect x="900" y="1655" width="850" height="860" fill="#786FC8" opacity="0.16"/>
    <rect x="1850" y="1620" width="950" height="900" fill="#5EA1CB" opacity="0.20"/>
    <rect x="2700" y="810" width="330" height="1690" fill="#DDEEF7" opacity="0.30"/>
    <rect x="3300" y="0" width="2500" height="2583" fill="#BDE7DF" opacity="0.06"/>
    <rect x="6660" y="700" width="430" height="1780" fill="#8AD2C7" opacity="0.24"/>
  </g>
</svg>
